<svg xmlns="http://www.w3.org/2000/svg" viewBox="172 272 268 203"><defs><clipPath id="a"><path d="M183 282.4h245.95v181.5H183Zm0 0"/></clipPath><clipPath id="c"><path d="M.36.4h245.52v181.28H.36Zm0 0"/></clipPath><clipPath id="b"><path d="M0 0h246v182H0z"/></clipPath><clipPath id="d"><path d="M261.12 328.56H351v69h-89.88Zm0 0"/></clipPath></defs><g clip-path="url(#a)"><g clip-path="url(#b)" transform="translate(183 282)"><path fill="#eadcf2" d="M68.9 155.43c16.2 5.63 34.6 8.8 54.09 8.8 65.29 0 118.22-35.6 118.22-79.54 0-43.93-52.93-79.54-118.22-79.54-65.3 0-118.22 35.61-118.22 79.54 0 23.24 14.82 44.15 38.44 58.7 0 0-3.34 18.15-21.16 33.77 0 0 22.34-.85 46.84-21.73m0 0"/><g clip-path="url(#c)"><path fill="#8a64a6" d="M26.9 33.6 11.2 50.5 3.5 66.4l-3 17.5 1.3 11.8 11.5 25.6 19.9 19.6 7.2 3.6 4.6-3.3-6.6-3.8-5.1-3.9-10.2-9.6L12 106.7 8.3 93.3l.9-21L14.7 58l6-8.2 22.8-20.1-.1-7.7zm-4 3.2-1.2.7.1.4zM10 70.8l.8.2.1-.4zm0 27 .4 1.1-.3-1.3zm.8 3.2.3.5-.1-1zm4.2 9.2-.5-.1.3.5zm2.4 71.4 1.9-.8zm1.1-.1h.1zM36.1 25.7l.9-.3-1 .3zm-3 142.1 13-20.5-2.3-3.5-5.4 1.6.6.1.3 3.4-3.5 5.4-20.6 26.8 27.2-4.7 13.7-7 12.2-9 .2-7.3-15.8 11.2-13.6 5.6-.9-.5-3 .6-16.2 8.9 12.2-6.9-1.6.7zm5.2 2.1.2.1h-.2zm-2.6-2.2-.1-.3-.1.4zm-.8.7.1-.2-.3-.1zm-1 .1-.4-.4h-.1zm-.1.8h.3l-.3-.1zm-1.6 1.2-.4.1-.6.2zm-.5 1.1-1.4.7-.4.1zm-1.8 1.2-2.5 1.3v.1zm-2 7.2-.1.6.4-.6zM38.3 24.6l-1 .6-.7.8zM40 137.7l-1.3-.4v.1zm-1.6 7.8.3-.1h-.4zm.6 2.2-.2.2.2.1zm-1.5 1.2v-.4l-.4.2zm5.9 6.7-.1-1.5-.7 1.2zm-.4 0v-.1h-.1zm-1.2 2.4-.6-.4-.2-.1zm-.6-.2-.2.1.8.3zm-.5 2.9-.7-.3h-.1l.4.3zm-1.5.4.4.4.2-.1zm2.3 7.6-.3-.7-.1-.1zm29.9-153h.8l.1-.2zM49.5 26l24.3-11.9 30-5.4 19.7-.7 21.4 1.3 38.6 10.5 7.7-3-4.8-2.9-3-2-32-8.4L116.2 1 76.9 7.5 44.6 22.3zm-3.3 1.3.4-1.2-.9 1.2zM45.7 143l-.4-.4-.1.1zm-.7 1.9v-.2l-.1.2zm23.6 7.8.1.8 1.8-.1zm-3.2 2.4v-1l-.1.9zm8.4 6 1.3.3h.9zm-19.6.8.4.1-.3-.3zm-2.8 1.6h-.3l.4.3zm40.5.9 36.2 4 28.6-3 35.3-12 16.5-9.8 4.2-5.6h-7.5l-14.7 9.7-11.9 5-26.7 6.4-16.4 1.9-6.1.1-14.6-.4-5.1-.7-3.5-1.1-1.5.8 3.9.4-4.1.4-30.1-6.6-5 4.5 4.3 1.8 4.1 2zm-41.5-.5-.1.3.2-.3zm-3.9 1.8.3.5-.1-.7zm80-157 1 .2v-.4zm-13.2.2.5.4v-.6zm17 .2.3-.5-.4.2zm-28.1.8-1.2.3 1.4-.2zM146 158.8l.5.4.2-.6zm-36.3 1.1h.1zm19.6.9.3-.5-.2.3-.3-.6h-.4zm3.2 0 .6-.6-.7.1zm-39.1 5 .7-.2h-1.4zM167.5 6.9l-1.4-.1.6.2zm16.3 5.2.7.1-.9-.2zm4.3 9.1 1.3-.3h-1.5zm2.1.1 22.3 14 14.1 15.2 5.7 8.5 4 12 2.8 12.6-2.5 14.2-3.1 9.7-19 23.3-.9 8.3 6.2-3.1.6-1 6.5-7 2.2-3.3.3.5.2-.2 11-17.8 4-12.7.6-14.1-5-19.5-15.5-22.5-30.4-20.7zm21.6 14.3.7.4-.7-.6zm-.9 99.4-.3-.1.4.6zm-23.7 13.9.3-.4-.8.4zm-26.8 7.5.9.3.2-.4zm-2.1.4-.8.4 1.1-.4zm70.8-101 .3.9.1-.9zm2 3.4-.7-1 .6 1.2zm3.8 9.9h.5l-.7-.1zm3.1 13.1-.6-.5.1.7zm-.6 2.8.5.3-.2-.4zm-.5 10 .2-.6-.8.2zm-4.7 10.4-.1 2.7 1.7-4.6zm.6 15.9 1.1-.9-.2-.4zm-11.4 13.1-.7.6.8-.6z"/></g></g></g><g clip-path="url(#d)"><path fill="#8a64a6" d="m289.68 382.9-21.27-21.27-7.21 7.21 28.48 28.48 61.2-61.2-7.22-7.2Zm0 0"/></g></svg>