<svg xmlns="http://www.w3.org/2000/svg" viewBox="184 259 206 224"><defs><clipPath id="b"><path d="M26 4h176v182H26Zm0 0"/></clipPath><clipPath id="c"><path d="M-1.76 25.55 198.99-9.47l30.35 173.99-200.75 35.02Zm0 0"/></clipPath><clipPath id="d"><path d="M-1.76 25.55 198.99-9.47l30.35 173.99-200.75 35.02Zm0 0"/></clipPath><clipPath id="e"><path d="M16.96.76H197v202.8H16.96Zm0 0"/></clipPath><clipPath id="a"><path d="M0 0h229v204H0z"/></clipPath></defs><g clip-path="url(#a)" transform="translate(178 269)"><g clip-path="url(#b)"><g clip-path="url(#c)"><g clip-path="url(#d)"><path fill="#d9e3d1" d="M156.2 136.1c-48.34 50-129.72 49.78-129.72 49.78S23.45 104.55 71.77 54.4c48.3-50.14 129.7-49.78 129.7-49.78s3.06 81.45-45.28 131.46m0 0"/></g></g></g><g clip-path="url(#e)"><path fill="#496851" d="M188.47 1.4c-2.11.99-11.78 5.02-18.6 7.74-10.2 4.07-17.95 6.86-42 15.04-25.46 8.68-37.64 13.6-48.96 19.72C64 51.96 52.5 61.13 43.66 72.08c-7.75 9.6-13.89 22.26-16.52 34.1-3.63 16.43-2.98 36.09 1.86 55.03.71 2.88 1.67 6.23 2.07 7.44l.75 2.14-2.88 4.37c-6.42 9.8-11.97 20.64-11.97 23.4 0 2.67 1.67 4.6 4.24 4.9 3.26.34 4.16-.53 7.26-6.91 2.67-5.55 4.74-9.21 8.5-14.98 2.07-3.19 2.6-3.8 3.13-3.68 14.97 3.22 23.44 4.12 36.3 3.84 13.33-.31 24.2-2.02 35.19-5.55 22.04-7.1 39.96-20.99 53.84-41.79 16.34-24.46 27.07-58.6 30.32-96.26 1.28-14.79 1.43-32.02.32-34.38-1.28-2.7-4.66-3.72-7.6-2.36M186.6 17.1a270 270 0 0 1-4.53 45.82c-6.01 30.57-16.4 55.46-30.81 73.82a116 116 0 0 1-15.04 15.13c-12.77 10.16-28 16.36-46.16 18.81-6.02.81-20.12 1.15-26.38.62-6.48-.52-16.93-2.2-17.61-2.79-.31-.3 6.48-9.23 12.4-16.27 5.52-6.6 4.5-5.93 11.56-7.66 10.73-2.6 24.56-3.32 35.9-1.8 3.1.4 4.38.22 5.68-.86a5.23 5.23 0 0 0-.34-8.22c-1.03-.75-5.5-1.4-12.53-1.86-5.92-.37-15.28 0-20.64.8-1.46.22-2.67.38-2.73.35-.38-.32 22.75-23.1 31.3-30.85 4.38-3.97 3.85-3.72 10.95-5.27 9.74-2.14 19.22-2.88 26.97-2.14 2.39.22 4.9.4 5.58.4a4.8 4.8 0 0 0 4.8-4.93c0-1.89-.8-3.5-2.13-4.3-2.23-1.3-13.02-2.05-20.93-1.46-2.54.18-4.68.28-4.74.21-.28-.24 18.44-14.94 22.16-17.39 1.52-.99 2.55-2.73 2.55-4.25a7 7 0 0 0-2.23-4.37 6.4 6.4 0 0 0-4.6-.58c-.95.37-10.16 7.28-17.63 13.2-14.6 11.66-29.02 24.28-40.52 35.62l-5.02 4.93-.22-3.38c-.65-10.5-2.88-22.78-4.44-24.64-2.91-3.48-8.89-1.59-8.89 2.79 0 .8.46 3.62 1.02 6.26 1.58 7.72 1.96 11.19 2.14 20.7l.19 8.75-2.45 2.58c-9.58 10.04-22.42 24.95-28.03 32.55l-2.01 2.72-.72-2.88c-4.15-17.18-4.55-35.1-1.14-49.73 1.8-7.6 5.6-16.65 9.7-22.9 8.65-13.25 21.73-24.31 39.37-33.27 12.03-6.14 22.5-10.2 50.44-19.6a734 734 0 0 0 28.43-10.04c7.16-2.66 18.57-7.28 20.06-8.09.43-.25.9-.43 1.05-.46.13 0 .22 1.76.22 3.93m0 0"/></g></g></svg>