<svg xmlns="http://www.w3.org/2000/svg" viewBox="143 258 325 280"><defs><clipPath id="b"><path d="M1.34 91H299.6v163.98H1.34Zm0 0"/></clipPath><clipPath id="c"><path d="M130 1.75h53V67h-53Zm0 0"/></clipPath><clipPath id="d"><path d="M29 100h84v40H29Zm0 0"/></clipPath><clipPath id="e"><path d="m56 77.86 58.9 33.05-28.93 51.52-58.88-33.05Zm0 0"/></clipPath><clipPath id="f"><path d="m56 77.86 58.9 33.05-28.93 51.52-58.88-33.05Zm0 0"/></clipPath><clipPath id="g"><path d="M32 44h79v44H32Zm0 0"/></clipPath><clipPath id="h"><path d="m78.32 21.21 35.65 57.35-50.18 31.2L28.14 52.4Zm0 0"/></clipPath><clipPath id="i"><path d="m78.32 21.21 35.65 57.35-50.18 31.2L28.14 52.4Zm0 0"/></clipPath><clipPath id="j"><path d="M206 94h84v45h-84Zm0 0"/></clipPath><clipPath id="k"><path d="m224.52 75.8 66.44 23.09-20.3 58.47-66.45-23.08Zm0 0"/></clipPath><clipPath id="l"><path d="m224.52 75.8 66.44 23.09-20.3 58.47-66.45-23.08Zm0 0"/></clipPath><clipPath id="m"><path d="M184 44h74v55h-74Zm0 0"/></clipPath><clipPath id="n"><path d="m185.8 39.39 73.14 1.72-1.46 61.88-73.13-1.72Zm0 0"/></clipPath><clipPath id="o"><path d="m185.8 39.39 73.14 1.72-1.46 61.88-73.13-1.72Zm0 0"/></clipPath><clipPath id="p"><path d="M130 1h53v68h-53Zm0 0"/></clipPath><clipPath id="q"><path d="m115.32 16.67 64.74-19.2 16.8 56.65-64.74 19.2Zm0 0"/></clipPath><clipPath id="r"><path d="m115.32 16.67 64.74-19.2 16.8 56.65-64.74 19.2Zm0 0"/></clipPath><clipPath id="s"><path d="M208 93h80v47h-80Zm0 0"/></clipPath><clipPath id="t"><path d="m242.34 77.86 45.32 28.35-34.32 54.87-45.32-28.35Zm0 0"/></clipPath><clipPath id="u"><path d="m242.34 77.86 45.32 28.35-34.32 54.87-45.32-28.35Zm0 0"/></clipPath><clipPath id="v"><path d="M184 45h74v54h-74Zm0 0"/></clipPath><clipPath id="w"><path d="m204.76 32.98 53.66 16.95-20.33 64.4-53.66-16.95Zm0 0"/></clipPath><clipPath id="x"><path d="m204.76 32.98 53.66 16.95-20.33 64.4-53.66-16.95Zm0 0"/></clipPath><clipPath id="y"><path d="M28 100h82v47H28Zm0 0"/></clipPath><clipPath id="z"><path d="m66.7 162.58-39.29-36.26 43.9-47.55 39.28 36.25Zm0 0"/></clipPath><clipPath id="A"><path d="m66.7 162.58-39.29-36.26 43.9-47.55 39.28 36.25Zm0 0"/></clipPath><clipPath id="B"><path d="M36 26h78v82H36Zm0 0"/></clipPath><clipPath id="C"><path d="M113.2 83.8 65.52 108 36.24 50.29l47.67-24.2Zm0 0"/></clipPath><clipPath id="E"><path d="M.04 14H77v48H.04Zm0 0"/></clipPath><clipPath id="F"><path d="M77.2 57.8 29.52 82 .24 24.29 47.91.09Zm0 0"/></clipPath><clipPath id="G"><path d="M47.77-.18.1 24.02l29.29 57.7 47.67-24.19Zm0 0"/></clipPath><clipPath id="H"><path d="M47.77-.18.1 24.02l29.29 57.7 47.67-24.19Zm0 0"/></clipPath><clipPath id="D"><path d="M0 0h78v82H0z"/></clipPath><clipPath id="I"><path d="M132 1h54v72h-54Zm0 0"/></clipPath><clipPath id="J"><path d="m128.96 5.6 56.13-4.03 4.84 67.35-56.13 4.03Zm0 0"/></clipPath><clipPath id="K"><path d="m128.96 5.6 56.13-4.03 4.84 67.35-56.13 4.03Zm0 0"/></clipPath><clipPath id="a"><path d="M0 0h302v256H0z"/></clipPath></defs><g clip-path="url(#a)" transform="translate(155 270)"><g clip-path="url(#b)"><path fill="#826b6e" d="M290.46 246.33c-33.24-11.04-68.25-15.74-103.12-17.24-5.55-.27-11.17-.46-16.72-.59a569 569 0 0 1-6.07-59.62c-.26-4.9-.79-9.93-.26-14.83.58-5.42 3.91-9.54 7.44-13.46a199 199 0 0 1 17.9-17.7 10.5 10.5 0 0 0-3-5.68c-1.51-1.37-3.67-2.15-5.63-2.67-.45-.13-.84-.2-1.3-.26q-.3-.01-.6.06-.28.02-.58.13c-.06.07-.06.13-.13.13-9.2 5.16-17.7 11.56-24.03 19.99A760 760 0 0 1 133 91.22c-3.2-.06-6.46.59-9.14 2.35a10 10 0 0 0-4.38 6.73c15.22 16.91 20.45 39.9 21.56 62.1.65 12.48.26 24.96-.07 37.36-.26 9.54-.78 19.07-2.48 28.48a569 569 0 0 0-54.92 3.26 334 334 0 0 0-27.89 4.31c-14.7 3-29.2 7-43.7 10.85-3.71.97-7.1 3.13-10.64 4.7.07.71.2 1.43.27 2.09 3.2.39 6.4 1.1 9.6 1.1 29.38-.58 58.84-1.7 88.22-1.82 64.46-.26 128.86 0 193.32 0 2.48 0 5.02-.26 7.5-.4l.4-1.95c-3.33-1.31-6.67-2.88-10.19-4.05m0 0"/></g><path fill="#826b6e" d="M273.87 99.45c-24.82-5.88-53.03 5.23-67.07 26.45l-.59.85c-.52.72-1.3 1.96-1.76 2.88 2.48 1.76 9.73 3.13 12.28 3.65q1.27.28 2.35.46c12.87 2.67 26.78 1.3 40.36-4.05 8.55-3.33 15.08-7.19 20.05-11.76 2.28-2.09 7.64-6.98 8.81-11.43v-.26c-2.74-3.65-9.07-5.55-14.43-6.8m-24.23-39.96c1.18-2.22 4.12-7.84 4.18-11.75-3.46-1.7-9.34-1.3-13.71-.85-24.04 2.67-45.65 21.68-51.4 45.06l-.26.98q-.12.61-.33 1.3c3.07.14 7.97-.58 10.13-.9q1.27-.22 2.35-.34c12.34-1.7 24.36-7.44 34.8-16.58 6.6-5.75 11.3-11.3 14.24-16.92m0 0"/><g clip-path="url(#c)"><path fill="#826b6e" d="M180.22 1.82c-3.72 0-8.49 1.76-12.08 3.33-22.8 9.6-38.47 34.48-37.23 59.1l.07 1.05c0 .39.06.84.06 1.37 3.07-.72 7.64-2.94 9.67-3.86.78-.39 1.57-.72 2.22-1.04 11.56-5.29 21.75-14.37 29.32-26.39 4.77-7.57 7.7-14.3 9.02-20.7.52-2.48 1.76-8.88.71-12.73-.65-.07-1.17-.13-1.76-.13m0 0"/></g><path fill="#826b6e" d="M103.55 72.35C96.11 62.8 85.52 55.5 72.8 51.19c-8.03-2.74-14.9-3.92-21.03-3.73-2.35.07-8.49.33-11.82 2.16.26 3.72 3.4 8.5 5.94 11.89 13.91 18.87 40.23 27.82 62.7 21.29l.91-.26c.33-.13.79-.2 1.24-.33-1.37-2.61-4.37-6.4-5.68-8.03-.59-.66-1.04-1.3-1.5-1.83m-1.12 36.31c-.78-.26-1.57-.59-2.22-.78-11.95-4.5-25.54-5.3-39.38-2.22-8.69 1.95-15.61 4.63-21.03 8.22-2.48 1.64-8.36 5.55-10.19 9.54q.02.01-.07.13c2.16 3.85 7.9 6.6 12.8 8.62 23.06 9.4 51.8 3 68.45-15.22l.65-.72c.52-.58 1.44-1.56 2.03-2.28-2.23-2.1-8.76-4.44-11.04-5.29m0 0"/><g clip-path="url(#d)"><g clip-path="url(#e)"><g clip-path="url(#f)"><path fill="#aabb9c" d="M73.52 139.67c-23.02 2.74-43.99-14.46-43.99-14.46s16.35-21.64 39.38-24.42c23.04-2.77 43.99 14.46 43.99 14.46s-16.37 21.69-39.38 24.42m0 0"/></g></g></g><g clip-path="url(#g)"><g clip-path="url(#h)"><g clip-path="url(#i)"><path fill="#aabb9c" d="M63.85 83.81C42.37 75.11 32.3 49.93 32.3 49.93s24.76-11.08 46.28-2.4 31.56 33.88 31.56 33.88-24.8 11.1-46.28 2.4m0 0"/></g></g></g><g clip-path="url(#j)"><g clip-path="url(#k)"><g clip-path="url(#l)"><path fill="#aabb9c" d="M253.86 136.07c-23.13 7.04-47.82-6.77-47.82-6.77S218.84 104.07 242 97c23.14-7.1 47.82 6.76 47.82 6.76s-12.82 25.27-35.96 32.31m0 0"/></g></g></g><g clip-path="url(#m)"><g clip-path="url(#n)"><g clip-path="url(#o)"><path fill="#aabb9c" d="M233.04 88.69c-20.24 14.03-48.49 8.33-48.49 8.33s4.56-28.45 24.8-42.53 48.5-8.34 48.5-8.34-4.57 28.5-24.81 42.54m0 0"/></g></g></g><g clip-path="url(#p)"><g clip-path="url(#q)"><g clip-path="url(#r)"><path fill="#aabb9c" d="M171.86 47.2c-14.08 18.4-41.02 21.46-41.02 21.46s-4.14-26.8 9.93-45.26 41.02-21.47 41.02-21.47 4.14 26.85-9.93 45.26m0 0"/></g></g></g><g clip-path="url(#s)"><g clip-path="url(#t)"><g clip-path="url(#u)"><path fill="#496851" d="M258.02 114.97a130 130 0 0 0-32.1 10.27c7.54 8.36 18.96 13.41 29.63 8.9 11.28-4.75 20.32-16.04 26.84-26.37-10.34-5.11-23.25-10.61-35-10.09-11.2.5-18.96 9.04-22.16 19.2-.4 1.27-1.57 1.81-2.71 1.33-.97-.41-1.42-1.48-1.02-2.68 3.96-11.75 12.73-21.26 25.65-21.86 9.31-.43 19.3 2.65 27.85 6.31a103 103 0 0 1 11.1 5.32c2.49 1.43-.28 4.47-1.86 6.9-6.22 9.64-14.64 19.36-24.92 24.65-13.39 6.88-27.44 1.14-37.1-9.68a52 52 0 0 0-9.92 6.38c-.94.8-1.88 1.1-2.82.38-.82-.63-1.27-2.11-.22-3.03 3.19-2.8 6.69-4.9 10.42-6.95 12.34-6.77 29.15-11.9 43.08-13.74 1.1-.15 1.87 1.06 1.88 1.84a2.1 2.1 0 0 1-1.88 2.17c-1.62.13-3.13.46-4.74.75m0 0"/></g></g></g><g clip-path="url(#v)"><g clip-path="url(#w)"><g clip-path="url(#x)"><path fill="#496851" d="M230.18 66.2a135 135 0 0 0-29.6 18.66c9.75 6.45 22.54 8.56 32.1 1.25 10.1-7.71 16.25-21.41 20.13-33.48-11.74-2.46-26.13-4.63-37.81-1.06-11.13 3.41-16.71 14.02-17.3 25.07-.07 1.38-1.1 2.23-2.37 2.04-1.08-.16-1.81-1.11-1.72-2.43.93-12.84 7.26-24.68 20.1-28.64 9.25-2.86 20.1-2.35 29.64-.9 4.3.66 8.37 1.31 12.54 2.46 2.88.8.88 4.56-.07 7.42-3.75 11.3-9.7 23.28-18.65 31.26-11.67 10.4-27.28 8.28-39.81-.08a54 54 0 0 0-8.3 9c-.75 1.04-1.61 1.6-2.75 1.1-.99-.41-1.82-1.8-1.01-2.98 2.48-3.64 5.45-6.66 8.67-9.7 10.64-10.02 26.2-19.54 39.73-25.02 1.07-.43 2.16.58 2.38 1.37a2.16 2.16 0 0 1-1.34 2.67c-1.6.55-3.03 1.28-4.56 1.99m0 0"/></g></g></g><g clip-path="url(#y)"><g clip-path="url(#z)"><g clip-path="url(#A)"><path fill="#496851" d="M58.17 123.21c10.78.1 23-1.32 33.44-4.14-5.86-9.62-16.14-16.7-27.47-14.25-11.96 2.6-22.93 12.01-31.26 20.95 9.22 6.95 20.88 14.74 32.52 16.4 11.1 1.6 20.31-5.37 25.35-14.76.63-1.17 1.87-1.49 2.9-.8.87.58 1.12 1.71.5 2.82-6.06 10.8-16.44 18.53-29.24 16.73-9.24-1.3-18.48-6.18-26.2-11.36a103 103 0 0 1-9.93-7.28c-2.18-1.87 1.1-4.34 3.1-6.44 7.9-8.32 17.98-16.32 29.07-19.6 14.42-4.29 27.17 3.95 34.66 16.37a52 52 0 0 0 10.93-4.43c1.07-.6 2.05-.74 2.84.15.69.77.85 2.32-.34 3.02-3.65 2.16-7.49 3.57-11.53 4.9-13.38 4.37-30.85 6.3-44.89 5.53-1.1-.06-1.63-1.4-1.5-2.16a2.1 2.1 0 0 1 2.25-1.79c1.61.18 3.17.13 4.8.14m0 0"/></g></g></g><g clip-path="url(#B)"><g clip-path="url(#C)"><g clip-path="url(#D)" transform="translate(36 26)"><g clip-path="url(#E)"><g clip-path="url(#F)"><g clip-path="url(#G)"><g clip-path="url(#H)"><path fill="#496851" d="M28.84 35.38a130 130 0 0 1 31.06 13.1c-8.26 7.65-20.08 11.66-30.3 6.22-10.81-5.75-18.81-17.8-24.4-28.66 10.77-4.18 24.11-8.5 35.77-6.93 11.11 1.5 18.08 10.7 20.37 21.1.28 1.3 1.39 1.94 2.57 1.56 1-.32 1.55-1.34 1.25-2.57-2.89-12.06-10.77-22.32-23.59-24.06-9.24-1.26-19.46.91-28.3 3.8a103 103 0 0 0-11.54 4.3c-2.6 1.2-.1 4.47 1.24 7.04C8.3 40.43 15.83 50.88 25.6 57.05c12.72 8.06 27.22 3.6 37.81-6.32a52 52 0 0 1 9.3 7.24c.88.88 1.79 1.27 2.79.63.87-.55 1.45-2 .5-3-2.94-3.06-6.23-5.47-9.77-7.85-11.68-7.85-27.97-14.46-41.68-17.54-1.09-.24-1.96.9-2.04 1.67a2.1 2.1 0 0 0 1.68 2.33c1.6.27 3.08.74 4.65 1.17m0 0"/></g></g></g></g></g></g></g><g clip-path="url(#I)"><g clip-path="url(#J)"><g clip-path="url(#K)"><path fill="#496851" d="M164.83 27.1a135 135 0 0 0-20.63 28.26c11.44 2.4 24.1-.36 30.3-10.67 6.55-10.9 7.21-25.9 6.37-38.55-11.82 2.04-26 5.33-35.54 12.96-9.09 7.28-10.37 19.2-6.83 29.68.44 1.31-.2 2.47-1.46 2.77-1.06.25-2.1-.37-2.49-1.62-3.87-12.28-2.35-25.63 8.12-34.04 7.55-6.06 17.81-9.6 27.22-11.76 4.24-.97 8.26-1.87 12.57-2.34 2.96-.33 2.49 3.92 2.66 6.92.7 11.9-.42 25.21-5.8 35.94-7.02 13.97-22.31 17.76-37.04 14.6a54 54 0 0 0-4.4 11.43c-.31 1.24-.91 2.07-2.14 2.04-1.08-.02-2.36-1-2.04-2.4.96-4.3 2.6-8.2 4.48-12.21 6.2-13.24 17.15-27.83 27.7-37.91.84-.8 2.23-.25 2.72.39.66.86.67 2.19-.26 2.98-1.28 1.1-2.34 2.3-3.5 3.53m0 0"/></g></g></g></g></svg>