<svg xmlns="http://www.w3.org/2000/svg" viewBox="172 292 277 256"><defs><clipPath id="b"><path d="M20 66h110v85H20Zm0 0"/></clipPath><clipPath id="c"><path d="m.2 108.35 40.44-74.77L145.31 90.2l-40.44 74.77Zm0 0"/></clipPath><clipPath id="d"><path d="m.2 108.35 40.44-74.77L145.31 90.2l-40.44 74.77Zm0 0"/></clipPath><clipPath id="e"><path d="M148 33h102v92H148Zm0 0"/></clipPath><clipPath id="f"><path d="M222.73.89 277 66.3l-91.58 76-54.28-65.43Zm0 0"/></clipPath><clipPath id="g"><path d="M222.73.89 277 66.3l-91.58 76-54.28-65.43Zm0 0"/></clipPath><clipPath id="h"><path d="M18 33h236v215.26H18Zm0 0"/></clipPath><clipPath id="i"><path d="M9.24 193.54H264v71.4H9.24Zm0 0"/></clipPath><clipPath id="j"><path d="M54 225h210v39.95H54Zm0 0"/></clipPath><clipPath id="a"><path d="M0 0h277v267H0z"/></clipPath></defs><g clip-path="url(#a)" transform="translate(174 271)"><g clip-path="url(#b)"><g clip-path="url(#c)"><g clip-path="url(#d)"><path fill="#d9e3d1" d="M109.36 72.54c8.67 4.89 14.8 12.89 17.95 21.94a43 43 0 0 1 2.29 17.45 40 40 0 0 1-4.6 15.94q-.07.16-.17.33-.3.58-.63 1.15A40 40 0 0 1 113.94 141c-12.33 9.54-29.83 12.13-44.16 4.71-11.74-6.08-19.51-17.75-25.47-29.55a687 687 0 0 0-8.19-15.65l-.1-.2a826 826 0 0 0-5.8-10.63q-4.98-9.01-10.04-18.09c16.95-1.21 33.59-2.3 50.51-4.2 13.14-1.46 27.15-1.35 38.67 5.15"/></g></g></g><g clip-path="url(#e)"><g clip-path="url(#f)"><g clip-path="url(#g)"><path fill="#d9e3d1" d="M215.22 115.53c-7.77 6.22-17.48 8.93-27.06 8.47a44 44 0 0 1-17.03-4.4 40 40 0 0 1-14.16-11.5A40 40 0 0 1 150 94.23c-4.24-15-.12-32.2 12.1-42.73 10.03-8.62 23.76-11.47 36.93-12.6a706 706 0 0 0 17.8-1.78 732 732 0 0 0 12.02-1.4q10.24-1.26 20.53-2.58c-5.2 16.18-10.39 32.02-14.95 48.43-3.54 12.74-8.87 25.7-19.2 33.96"/></g></g></g><g clip-path="url(#h)"><path fill="#496851" d="M250.68 35.37c-2.73 0-67.26-8.28-91.01 15.63-23.75 23.92-11.58 59.83-11 61.32a129 129 0 0 0-17.71 36.24q-2.71-7.32-6.46-14.15c0-1.5 5.38-35.75-19.77-54.36-25.16-18.62-81.34-9.68-83.74-9.27q-.93.13-1.65.73-.7.6-1 1.5-.24.87.03 1.72.27.86.97 1.43a155 155 0 0 1 33.1 52.2 33 33 0 0 0 14.14 15.93q3.15 1.8 6.62 2.86a39 39 0 0 0 12.25 1.82 70.6 70.6 0 0 0 34.09-10.34 102 102 0 0 1 8.27 21.84 90 90 0 0 0 3.31 44.44 3.2 3.2 0 0 0 2.98 2.14h1a3 3 0 0 0 2.06-2.7q.03-.6-.16-1.18a85 85 0 0 1-4.07-20.97 85 85 0 0 1 1.25-21.31 115 115 0 0 1 19.78-45.18 95 95 0 0 0 30.78 5.96 49.6 49.6 0 0 0 23.17-5.22 35 35 0 0 0 15.65-16.02 35 35 0 0 0 2.55-7.14c9.85-41.38 25.57-51.88 25.65-51.97a3 3 0 0 0 1.33-3.3 3.1 3.1 0 0 0-1.52-2.31 3 3 0 0 0-.89-.34M75.02 141.44a27.4 27.4 0 0 1-16.54-15.39 179 179 0 0 0-30.12-49.64c14.8-1.9 54.44-4.72 72.73 8.68a49.4 49.4 0 0 1 13.7 18.26 50 50 0 0 1 4.09 22.45 61 61 0 0 0-11.96-13.06 61 61 0 0 0-15.18-9.11 3.2 3.2 0 0 0-2.38.2 3.3 3.3 0 0 0-1.6 1.78 3.2 3.2 0 0 0 .18 2.4 3 3 0 0 0 1.81 1.58 59 59 0 0 1 15.1 9.73 59 59 0 0 1 11.46 13.85c-19.77 11.08-33.26 10.67-41.29 8.27M220.23 91.8a29 29 0 0 1-5.43 11.16 29 29 0 0 1-9.62 7.87c-8.28 4.38-23.17 7.53-47.25-.5a192 192 0 0 1 36.16-36.08 3.05 3.05 0 0 0 1.23-3.2 3 3 0 0 0-1.36-1.93 3.1 3.1 0 0 0-3.43.09 190 190 0 0 0-37.32 36.99c-2.48-9.44-6.28-33.77 10.68-50.8 16.96-17.06 62.22-15.81 79.27-14.49a117 117 0 0 0-14.54 24.06 117 117 0 0 0-8.39 26.83M183.33 249h-97.8a3.1 3.1 0 0 1-2.4-1.07q-.9-1.13-.66-2.56a55 55 0 0 1 2.34-8.93 52 52 0 0 1 6.32-12.3 52 52 0 0 1 9.3-10.21 52 52 0 0 1 15.9-9.23 51 51 0 0 1 8.9-2.4 52 52 0 0 1 13.82-.6 52 52 0 0 1 9.08 1.6 51 51 0 0 1 8.67 3.17 54 54 0 0 1 7.98 4.63 51 51 0 0 1 7.05 5.95 54 54 0 0 1 8.37 11 53 53 0 0 1 6.2 17.32 2.9 2.9 0 0 1-.75 2.56q-1.05.75-2.32.5Zm-93.99-6.78h90.19a46.52 46.52 0 0 0-76.62-22.83 48 48 0 0 0-5.2 5.66 47 47 0 0 0-5.89 9.9 49 49 0 0 0-2.48 7.27m0 0"/></g><g clip-path="url(#i)"><path fill="#9e91a3" d="m263.09 266.22-143.61-.34-110.09-.25s7.41-10.05 24.87-16.76c17-6.53 16.12-7.65 20.08-13.56l.33-.49q1.35-2 3.03-3.74c3.73-3.85 8.16-5.87 13.84-6.78 7.3-1.18 11.17-9.7 22.34-16.88s20.11-15.4 23.76-13.64c3.64 1.77 15.99 1.3 18.57 3.17 2.59 1.89 8.82 8.23 23.16 8.83s28.81-2.94 36.93 5.05c6.38 6.29 12.19 12 16.14 14.26q1.61.94 2.79 1.03c3.65.24 12.11 2.7 19.29 13.99s24.92 16.35 28.57 26.1m0 0"/></g><g clip-path="url(#j)"><path fill="#9e91a3" d="M119.48 265.88c2.1-4.99 3.87-13.56-5.85-17.89-14.22-6.35-18.93-6-37.74-2.47-14.59 2.73-20.05-3.72-21.56-10.2l.34-.5a28 28 0 0 1 3.03-3.74c1.04 4.71 3.63 8.95 9.6 8.68 13.17-.58 21.99-11.05 41.63-1.3 19.63 9.77 29.57 21.88 66.08 16.41 35.02-5.25 40.19-14.55 37.43-29.77q1.6.93 2.79 1.02c3.64.24 12.11 2.7 19.29 13.99s24.92 16.35 28.57 26.1Zm0 0"/></g><path fill="#9e91a3" d="M189.95 214.13s23.28 13.75 9.87 17.64c-13.4 3.87-13.05 4.23-26.34 9.52-13.28 5.3-24.8 1.53-31.16-5.41s-17.52-8.7-27.98-11.05-15.64-21.05 7.52-21.17c23.17-.12 17.17 8 37.04 9.17 19.88 1.18 22.19-5.06 31.05 1.3m0 0"/></g></svg>