<svg xmlns="http://www.w3.org/2000/svg" viewBox="200 312 232 232"><defs><clipPath id="a"><path d="M210.4 322.26h210.74V533H210.4Zm0 0"/></clipPath></defs><path fill="#4b2e59" d="m271.08 472.41 62.3-27.16 27.34-62.13-62.3 27.17Zm37.28-52.18a10.5 10.5 0 0 1 7.46-3.1 10 10 0 0 1 4.04.8 11 11 0 0 1 3.42 2.3 10.7 10.7 0 0 1 2.88 5.4 10.7 10.7 0 0 1-.6 6.08 10.6 10.6 0 0 1-11.8 6.3 10.5 10.5 0 0 1-8.48-10.33 10 10 0 0 1 .8-4.03 11 11 0 0 1 2.28-3.42m0 0"/><g clip-path="url(#a)"><path fill="#4b2e59" d="M414.2 425.92h7.03a104 104 0 0 0-4.84-29.9 110 110 0 0 0-3.5-9.5 106 106 0 0 0-15.7-25.9 103 103 0 0 0-10.48-11 103 103 0 0 0-11.95-9.37 101 101 0 0 0-8.66-5.25 106 106 0 0 0-18.63-7.9 112 112 0 0 0-9.8-2.57 103 103 0 0 0-9.99-1.62 104 104 0 0 0-10.11-.65v7.03a1.7 1.7 0 0 1-.52 1.24q-.24.24-.56.38a1.76 1.76 0 0 1-2.43-1.62v-7.03a104 104 0 0 0-25.04 3.44 112 112 0 0 0-9.66 3.04 106 106 0 0 0-26.62 14.44 103 103 0 0 0-11.49 9.94 103 103 0 0 0-9.93 11.48 105.4 105.4 0 0 0-20.93 61.32h7.03a1.7 1.7 0 0 1 1.62 1.09 1.7 1.7 0 0 1 0 1.34 1.8 1.8 0 0 1-1.62 1.09h-7.03a109 109 0 0 0 1.34 15.12 108 108 0 0 0 3.5 14.78 108 108 0 0 0 5.6 14.11 107 107 0 0 0 13.62 21.3 106 106 0 0 0 26.69 23.09 104 104 0 0 0 13.51 6.91 102 102 0 0 0 9.5 3.5 102 102 0 0 0 9.8 2.58 107 107 0 0 0 20.1 2.27v-7.03a1.75 1.75 0 0 1 3.39-.67q.13.33.13.67v7.03a104 104 0 0 0 20.1-2.27 106 106 0 0 0 32.82-13 101 101 0 0 0 8.4-5.66 102 102 0 0 0 11.48-9.93 107 107 0 0 0 12.87-15.62 108 108 0 0 0 9.65-17.78 111 111 0 0 0 3.5-9.5 110 110 0 0 0 2.57-9.8 103 103 0 0 0 2.07-15.04q.17-2.53.2-5.06h-7.02a1.7 1.7 0 0 1-1.25-.52 1.74 1.74 0 0 1 0-2.48 1.8 1.8 0 0 1 1.25-.52m-98.39 89.61a88 88 0 0 1-45.16-12.5 87 87 0 0 1-10.57-7.44 90 90 0 0 1-9.36-8.91 90 90 0 0 1-7.95-10.2 87 87 0 0 1-8.12-15.18 86 86 0 0 1-5-16.48 87 87 0 0 1-1.58-21.45 94 94 0 0 1 .84-8.58 87 87 0 0 1 4.19-16.7 88 88 0 0 1 17.62-29.41 90 90 0 0 1 12.76-11.56 84 84 0 0 1 7.17-4.8 91 91 0 0 1 11.55-5.8 86 86 0 0 1 16.48-5 87 87 0 0 1 21.44-1.59 87.7 87.7 0 0 1 54.7 22.66 90 90 0 0 1 11.56 12.75 88 88 0 0 1 15.6 69.48 86 86 0 0 1-3.45 12.45 86 86 0 0 1-5.24 11.82 91 91 0 0 1-6.91 10.92 86 86 0 0 1-8.45 9.8 90 90 0 0 1-9.78 8.43 88 88 0 0 1-52.34 17.3m0 0"/></g></svg>