<svg xmlns="http://www.w3.org/2000/svg" viewBox="152 313 308 262"><defs><clipPath id="a"><path d="M237 468h209.45v93.27H237Zm0 0"/></clipPath><clipPath id="b"><path d="M165.2 439H253v93h-87.8Zm0 0"/></clipPath></defs><path fill="#8a64a6" d="M342 366.75a46.76 46.76 0 0 0-46.7 46.71 46.75 46.75 0 0 0 46.7 46.7 46.75 46.75 0 0 0 46.7-46.7 46.75 46.75 0 0 0-46.7-46.7m0 104.1a57.45 57.45 0 0 1-57.39-57.39 57.46 57.46 0 0 1 57.4-57.4 57.46 57.46 0 0 1 57.38 57.4 57.45 57.45 0 0 1-57.39 57.4"/><g clip-path="url(#a)"><path fill="#8a64a6" d="M441.48 561.4H242.54a5.33 5.33 0 0 1-5.34-5.34c0-34.22 16.76-66.36 44.85-85.99a5.35 5.35 0 0 1 6.12 8.77 94.3 94.3 0 0 0-40.14 71.88h187.95A94.1 94.1 0 0 0 394.63 478a5.34 5.34 0 1 1 5.98-8.86 104.8 104.8 0 0 1 46.2 86.91 5.33 5.33 0 0 1-5.33 5.34"/></g><path fill="#8a64a6" d="M270 440.8a57.45 57.45 0 0 1-57.38-57.39A57.46 57.46 0 0 1 270 326.02a57 57 0 0 1 40.58 16.8 5.34 5.34 0 0 1-7.55 7.56A46.4 46.4 0 0 0 270 336.7a46.75 46.75 0 0 0-46.7 46.71 46.75 46.75 0 0 0 46.7 46.7 5.34 5.34 0 1 1 0 10.69"/><g clip-path="url(#b)"><path fill="#8a64a6" d="M247.16 531.35h-76.62a5.33 5.33 0 0 1-5.34-5.34c0-34.22 16.77-66.37 44.86-85.98a5.33 5.33 0 1 1 6.12 8.75 94.3 94.3 0 0 0-40.14 71.89h71.12a5.34 5.34 0 1 1 0 10.68"/></g></svg>