<svg xmlns="http://www.w3.org/2000/svg" viewBox="172 262 268 268"><defs><clipPath id="a"><path d="M183.6 273.6h244.5v244.5H183.6Zm0 0"/></clipPath></defs><g clip-path="url(#a)"><path fill="#8a64a6" d="m416.3 367.54-16.37-4.1-4.48-10.85 8.68-14.46a16 16 0 0 0 2.26-7.53 16 16 0 0 0-1.6-7.69 16 16 0 0 0-3.06-4.29l-18.36-18.35a15.9 15.9 0 0 0-19.5-2.4l-14.46 8.68-10.86-4.5-4.08-16.36a16 16 0 0 0-3.73-6.92 16 16 0 0 0-11.77-5.17h-25.94a16 16 0 0 0-7.62 1.93 16 16 0 0 0-7.88 10.16l-4.09 16.37-10.85 4.5-14.45-8.69a16 16 0 0 0-15.23-.66 16 16 0 0 0-4.28 3.06l-18.36 18.36a16 16 0 0 0-4.56 9.33 17 17 0 0 0 .23 5.27 16 16 0 0 0 1.93 4.9l8.67 14.46-4.48 10.85-16.36 4.1a16 16 0 0 0-4.84 2.1 15.8 15.8 0 0 0-6.4 8.18 16 16 0 0 0-.86 5.2v25.95a16 16 0 0 0 1.93 7.62 16 16 0 0 0 3.24 4.15 16 16 0 0 0 6.93 3.72l16.36 4.1 4.49 10.84-8.68 14.47a15.9 15.9 0 0 0 2.4 19.5l18.35 18.35a16 16 0 0 0 6.75 4.03 15.8 15.8 0 0 0 12.75-1.63l14.47-8.68 10.85 4.5 4.08 16.36a16 16 0 0 0 3.73 6.93 16 16 0 0 0 6.58 4.3 16 16 0 0 0 5.2.86h25.94a16 16 0 0 0 11.77-5.17 16 16 0 0 0 3.72-6.92l4.1-16.37 10.84-4.49 14.46 8.68a15.9 15.9 0 0 0 19.5-2.4l18.36-18.35a16 16 0 0 0 4.03-6.75 15.8 15.8 0 0 0-1.62-12.76l-8.68-14.46 4.49-10.85 16.36-4.09a16 16 0 0 0 4.83-2.1 16 16 0 0 0 3.89-3.56 16 16 0 0 0 3.37-9.83v-25.95a16 16 0 0 0-3.38-9.83 16 16 0 0 0-8.72-5.65m1.45 41.43a5.35 5.35 0 0 1-4.03 5.17l-18.96 4.74a5.2 5.2 0 0 0-3.63 3.12l-6.54 15.8a5.3 5.3 0 0 0 .35 4.78L395 459.34a5.4 5.4 0 0 1 .22 5.07q-.39.8-1.02 1.43l-18.36 18.35a5.2 5.2 0 0 1-4.87 1.45 5 5 0 0 1-1.63-.65l-16.77-10.05a5.2 5.2 0 0 0-4.77-.36l-15.8 6.55a5.3 5.3 0 0 0-3.13 3.62l-4.74 18.97a5.2 5.2 0 0 1-1.88 2.9 5.2 5.2 0 0 1-3.28 1.13h-25.94a5.35 5.35 0 0 1-5.17-4.03l-4.74-18.97a5.3 5.3 0 0 0-3.13-3.62l-15.8-6.55a5.3 5.3 0 0 0-4.77.36l-16.77 10.05a5.2 5.2 0 0 1-5.07.22q-.8-.39-1.42-1.02l-18.36-18.35a5.3 5.3 0 0 1-1.52-3.11 5.3 5.3 0 0 1 .72-3.39l10.05-16.76a5.3 5.3 0 0 0 .36-4.78l-6.55-15.8a5.3 5.3 0 0 0-3.63-3.12l-18.96-4.74a5.3 5.3 0 0 1-3.74-3.43 5 5 0 0 1-.29-1.74v-25.95a5.3 5.3 0 0 1 4.04-5.16l18.95-4.75a5.2 5.2 0 0 0 3.63-3.12l6.55-15.8a5.2 5.2 0 0 0-.36-4.78L217 332.66a5.2 5.2 0 0 1-.73-3.4 5.3 5.3 0 0 1 1.53-3.1l18.35-18.36a5.2 5.2 0 0 1 4.87-1.44q.87.19 1.64.64l16.76 10.05a5.2 5.2 0 0 0 4.77.36l15.8-6.54a5.3 5.3 0 0 0 3.13-3.63l4.74-18.96a5.3 5.3 0 0 1 3.43-3.75q.85-.3 1.74-.29h25.94a5.2 5.2 0 0 1 3.28 1.13 5.3 5.3 0 0 1 1.88 2.9l4.74 18.97a5.3 5.3 0 0 0 3.13 3.63l15.8 6.54a5.2 5.2 0 0 0 4.77-.36L369.34 307a5.4 5.4 0 0 1 3.39-.72 5 5 0 0 1 3.11 1.52l18.35 18.35a5.3 5.3 0 0 1 .8 6.5l-10.05 16.76a5.3 5.3 0 0 0-.36 4.78l6.55 15.8a5.2 5.2 0 0 0 3.63 3.12l18.96 4.74a5.3 5.3 0 0 1 4.03 5.17Zm0 0"/></g><path fill="#8a64a6" d="M306 337.46a58.7 58.7 0 0 0-32.52 9.86 59 59 0 0 0-12.73 11.54A59 59 0 0 0 249.98 379a58 58 0 0 0-2.24 22.73 60 60 0 0 0 2.24 11.26 58 58 0 0 0 7.34 15.53 60 60 0 0 0 7.29 8.87 58.4 58.4 0 0 0 35.65 16.86 58.7 58.7 0 0 0 38.26-9.58 60 60 0 0 0 8.87-7.28 59 59 0 0 0 10.23-13.8 58.3 58.3 0 0 0 6.63-33.33 59 59 0 0 0-4.2-16.65 59 59 0 0 0-5.4-10.12 59 59 0 0 0-16.15-16.14 58.6 58.6 0 0 0-32.5-9.89m0 106.43a48 48 0 0 1-13.9-2.06 48 48 0 0 1-19.97-11.97 48 48 0 0 1-10.38-15.54 49 49 0 0 1-3.42-13.63 48 48 0 0 1 1.83-18.6 49 49 0 0 1 3.6-8.67 47 47 0 0 1 5.21-7.8 47.6 47.6 0 0 1 18.7-13.87 49 49 0 0 1 8.98-2.73 48 48 0 0 1 27.67 2.73 49 49 0 0 1 12.06 7.22 47.6 47.6 0 0 1 13.87 18.7 48 48 0 0 1 3.4 23.02 48 48 0 0 1-7.85 21.9 51 51 0 0 1-5.95 7.26 48 48 0 0 1-11.29 8.37 47 47 0 0 1-13.22 4.74 48 48 0 0 1-9.34.93m0 0"/></svg>