<svg xmlns="http://www.w3.org/2000/svg" viewBox="170 225 272 342"><path fill="#8a64a6" d="m266.85 525.98 29.74 23.57a15.4 15.4 0 0 0 9.4 3.24c3.35 0 6.68-1.11 9.41-3.24l29.74-23.57a185 185 0 0 0 68.79-119.97l13.75-98.72a15.2 15.2 0 0 0-8.5-15.88l-106.71-50.68a14.6 14.6 0 0 0-12.95 0L192.8 291.4a15.2 15.2 0 0 0-8.5 15.88L198.08 406a185 185 0 0 0 68.78 119.97m-8-165.18a15.1 15.1 0 0 1 21.45 0l13.76 13.75 37.63-37.62a15.26 15.26 0 0 1 21.44 0 15.1 15.1 0 0 1 0 21.44l-48.35 48.35a15 15 0 0 1-10.72 4.45c-3.85 0-7.69-1.51-10.72-4.45l-24.48-24.48a15.1 15.1 0 0 1 0-21.44m0 0"/></svg>