<svg xmlns="http://www.w3.org/2000/svg" viewBox="144 236 302 230"><defs><clipPath id="b"><path d="M.2.9h275.3v203.57H.2Zm0 0"/></clipPath><clipPath id="d"><path d="M.63 1h274.88v203.47H.63Zm0 0"/></clipPath><clipPath id="c"><path d="M0 0h276v205H0z"/></clipPath><clipPath id="e"><path d="M70 51h136v122.14H70Zm0 0"/></clipPath><clipPath id="f"><path d="M69 53h141v120.16H69Zm0 0"/></clipPath><clipPath id="a"><path d="M0 0h276v205H0z"/></clipPath></defs><g clip-path="url(#a)" transform="translate(157 248)"><g clip-path="url(#b)"><g clip-path="url(#c)"><path fill="#ffe7ea" d="M77.27 175.13c18.22 6.32 38.89 9.89 60.8 9.89 73.36 0 132.84-40.02 132.84-89.39S211.43 6.25 138.06 6.25C64.7 6.25 5.21 46.27 5.21 95.63c0 26.12 16.66 49.62 43.2 65.96 0 0-3.75 20.4-23.77 37.96 0 0 25.1-.96 52.63-24.42m0 0"/><g clip-path="url(#d)"><path fill="#c46d84" d="m25.6 41.8-1.4.8.1.5zm-9.4 10.5-3.7 4.9-1.8 6-1.1 1.1-.4-.6-2.5 3.6.2 3.6L4.7 72 1.6 82.4l-.4 10.5-.8 1.9 2.1 16.1 6.3 16.8 9.5 13.8 13.2 12.8 11.2 8.1 2.6.4 3.6-1.4 1.5-2.2-1.9-1.8-3-.7-2.4-1.8-2-2.1-3-1-2.1-3.1-2.9-.5-.9-2.1-8-7.4-1.3-3.2-4.5-5.1-3.8-7.2-4-10.7L8.3 102l1.1-2.3L8 97.4l2.9-18.5 3.2-6.1-.5-1.3 2.8-5.9 1.3-.3-.1-1.3 2.3-1.8-1-.8 1.6-2.7 2.8-2.2-3 4.3.5.4 2.7-2.9-.2-1.8 1 .1 10.2-11.4 14.2-11.3 2.9-5.2-2.7 1.4v-1.4l1.9-1.4-2.2-2-1.4.3-2.7 1.4-2.4 3.2-3.1.5-4.6 3-9 10.1-1.7.1-4.6 4.6-1.1 1.4 1.1.8zm-.7 17.6-.7-.7.7.8zm-.7-.1.2.8.4-.2zm-3.3 10.8.5-.4.1-.4-1 .3zM9.7 98l-.6.5.7.2zm1.4 12.4.5 1.1-.4-1.4zm.9 3.6.3.6-.1-1.2zm4.7 10.3-.6-.2.4.6zm10.2 16-.7-.7.7.9zm1 1.2h-.1l.1.1zm-8.4 63 2-.8v-.1zM40.4 29.4l1-.4zM40 189l-.1-.4-.1.4zm-.9.6.2-.1-.4-.1zm-4.9 3.3 3.7-3.9 1.3.2.9-3 2.5-.8-.8-.8 1.8-1.5.2-1.6 2.5-5.4 1.4-.9-.5-1.7 1.3.2.2 1-.9.3 1.4-.2-.6-1.1 1.4-1.2 1.7-8.9-1-2.2-7.4 2.3 1.6.3h-1.5l-1 2.2.8 1.3-2.3 2.5 1.3.8-1.4-.1-1.1 1.2 1 2.2-1.5-.6-5 9.3-19 20.8 3.6-.3-.7 1.1 3.5-1.5v1l1.9.5 8.9-2.9.1 1.1 2.9-1.4 1.7.4v-1.2l1 .9 3.8-.8 1.6-.7.4-1.7.8 1.8 2-1.7 3.6-.4 16.2-8.9 11.4-10.4 3.2 2.5 3.8-.3 2.3 1.9 5.5 1.9 8.5 1.1 2.2-.6.9 1.2 1.2-.5 3.9 1.6 1.9-.5 2.5 1.6 1.2-1.8 1.7 1.6 7.9 1.1 5.6-1.4.4 1 3.3 1v-.7l14.8.6 12.5-1.3 10.8-2.6 5.1-.1 17.5-4.4 19.1-7.6 15.8-8.7 10.6-8-2.4-3-3.7-1.2-1.6 2.5-2.5 1.7-2.7 1.1-2 2.4-3.6.9-1.5 2.6-2.3.1-9.6 5.3-3.5.1-13.8 5.6-6 .7-1 1.3-1.8-.3-7.3 1.9-3.2-.6-.3 1.2-6.1.5-2.2-.5-5.5 1.8-7.5-.2-2.3 1.2-11.5-1-1.4.8-1.5-.3.3-1-.4.9-7-.2-2.6-1.3-.1 1.4-3.3-.2-2.7-.6-.5-1.7-15.6-1.8-17.8-3.9h-6.5l3.2 3.1-2.5-.6.1 2.6-2.2-6.7-1.4 2.2-1.8.7v2.5l-1.6-.1-.5 1.1-10.4 5.7-.6 1.4-2.1-.4-2.6 2.2-2.4-.6v1.7l-3.9 1.5-.6 1.6-4.6.3-.4-.7-.3 1.3-1.4-.8L40 193l-.7-.3.2-1.3-20.6 11.4 17-9.7-5 2.1 4.6-2.3-3.1 1.2 3.2-1.5zm3.7-2.2h.4l-.4-.1zm1.7.5-.2 1.5.4-.5zm-3.6.9-.3.1-.7.2zm-2.6 2.6-2.7 1.4zm-2.2 8-.1.7.5-.7zM42.9 28.1l-1.3.9-.6.8zm1.9 127-1.3-.4-.2.2zm6.8 5.4-.8.3h-.1l.6.3zm-8.6 3.4h.7l.2-.1zm0 0h.3-.4zm-.8 3.9-.1-.4-.5.2zm4.7 10.4-.7-.6-.2-.1zm-1.3 2.8-.7-.3h-.2l.4.3zm-1.7.6.5.4.3-.2zM80.1 18.1h.9l.1-.2zm-1.4.5v.1zm-22.5 9.7 8.2-3.6.9-1.7L82 16.8l.8.5 16.9-4.9 5.9-.5 1.4-1.3 2.9 1.1 3.9-1.1 6.8.2 1.2-1.2L127 11l1.5-1.3 5.1-.6 7.4.3 1.6.4-.3.7 2.5-1 9.9 1.5.9-.9 6.5.6.7 1.5 1.2-1.3 3.5 1.3 2.3-.5 3.6.8.5 1.1-5.4-.7 2.6 1.3 2.9-.5 1.7 1.2 36.6 9-1.5-3 2.5.2 1.5-1.7-3.5-3.1-4.7-.3-.8-2.2-4.8-2-3.8-.3-5.3-2-4 .5-6.2-3.2-4.7-1.1.6 1.1-2.5-.1-.1-1.4-5.6-1.1-8 .2.5-1.3-4.2-.7-3.2 1.2-1.8-1.7-23.3-.3-5.5.3-3.6 1.5-7.2-.4-24.6 5.1-22.8 8.2L50 23.9l2.7 6.3 1.5.2zM77 172.1l.2.8 1.9-.1zm-9.9 7.1-.2.4.4.1zm15.8 2.3 1.5.4.9-.1zm2.5 1-.9-.2 1 .3zm-24.6-.1.4.1-.2-.3zm-3.1 1.8-.3.1.4.2zm1.3.1.2.7.1.1zm-2.5.3-.2.4.3-.4zM157.4 11.4l.6-.5-.7-.2zm-50.4.5.3-.6-.1-.2zm3.9.5-.5-.6-.2.4zm53 166.5.6.5.2-.7zm-43.4.2-3 .8 5.7.3zm24.6 2.1.4-.6-1-.3zm3.7 0 .9-.5-1.1-.1zm-15.1.1.8.2-.4-.9zm-28.9 5.5.8-.3H104zM187.4 7.9l-.8.2 1.5.2zm19.2 6.3h.5l-.9-.3zm2.2 1-2.5-.5 1.6.8zm2.4 9 1.4-.3H211zm6.9 4.2 11.9 5.2 3.6 3.6 3.1 1.4 8.4 7.3 6.4 7.6 1.9.9 2.1 5.5 1.9.1 2 5.5 1.5 1.2.8 4.9h1.3l3.7 12.7.6 7.8 1.2 2.3-1 1.8-.9 11.2-1.9 3.7.6 1.3-3 8.8-3.1 1.7-7.1 11.8-15 17.9h3.6l-1.7 2.1.9 2.1 4.4-1.9 2.4-4 2.3.3 3.9-3.5 5.9-7.3.7-4.2 2.2-.9.3-1.4 2.5-2.2.5-2.3 2.6-2-.8.4-.4-2.1 1.9-.7 2-4.1 1.5-3.4v-5.6l1-.1 1.6-3-1-.3 2.1-7-.3-14.4-3.4-13.9-2.3-2.9.2-1.5-2.2-5.4-12.6-17.3-15.6-13.6-12-7.6-12.1-6.1-1.6 3.4.1 4.1h3.1l2.6 1.9zm19.8 12 .8.5-.8-.7zm-.2 110.9-1.2.8.4.6v-.6zm8.7 1.9 1.1-.9.5-1zm-16.4 3.6.5-1.3-.6 1.3zm-19.7 11 .2-.5-.9.5zm-18.3 5.4-.2.5.5-.2zm-11.9 3 1 .3.2-.4zm-2.4.5-.8.5 1.2-.5zm73.2-122.2h.6l-.5-.5zm6.8 8.7-.4.7.4.3zm1.8 3.7-.8-1 .8 1.3zm4.1 11.1.8.1-.2-.1zm3.7 14.9-.7-.6.1.7zm-1.1 3.8 1-.3-.2-.5-.4.1zm0 10h-.8l.7 1.2-.3-.7zm-5.8 13.3.3 1.9 1.9-5.1zm1.1 16.8 1.2-1.1-.2-.4zm-12.8 14.7-.8.6.9-.6z"/></g></g></g><g clip-path="url(#e)"><path fill="#f2c5cb" d="M205.43 81.93c-7.64-39.3-55.53-39.95-67.34-3.22-11.8-36.73-59.7-36.07-67.33 3.22-6.93 35.66 67.33 91.9 67.33 91.9s74.27-56.24 67.34-91.9m0 0"/></g><g clip-path="url(#f)"><path fill="#c46d84" d="M139.85 174.22c-.62 0-1.23-.25-1.67-.69L89.44 124.8l-.2-.24-8.66-8.65a36.86 36.86 0 0 1 0-52.06 36.86 36.86 0 0 1 52.06 0l7.22 7.22 7.23-7.22a36.86 36.86 0 0 1 52.06 0 36.6 36.6 0 0 1 10.78 26.03c0 9.83-3.83 19.08-10.78 26.03l-8.66 8.65-.2.24-48.75 48.74c-.4.4-.92.63-1.47.68l-.2.01zM92.98 121.7l46.88 46.89 46.89-46.89.2-.24 8.88-8.87a32 32 0 0 0 9.41-22.72c0-8.58-3.34-16.65-9.4-22.72a32.16 32.16 0 0 0-45.44 0l-8.88 8.88a2.33 2.33 0 0 1-3.31 0l-8.88-8.88a32.16 32.16 0 0 0-45.44 0 32.17 32.17 0 0 0 0 45.44l8.88 8.87zm0 0"/></g></g></svg>