<svg xmlns="http://www.w3.org/2000/svg" viewBox="196 295 202 202"><defs><clipPath id="b"><path d="M.3.55h183.02v182.9H.31Zm0 0"/></clipPath><clipPath id="c"><path d="M66.12 66.37h51.26v51.26H66.12Zm0 0"/></clipPath><clipPath id="d"><path d="M91.75 66.37a25.63 25.63 0 1 0 0 51.26 25.63 25.63 0 0 0 0-51.26m0 0"/></clipPath><clipPath id="f"><path d="M.12.37h51.26v51.26H.12Zm0 0"/></clipPath><clipPath id="g"><path d="M25.75.37a25.63 25.63 0 1 0 0 51.26 25.63 25.63 0 0 0 0-51.26m0 0"/></clipPath><clipPath id="e"><path d="M0 0h52v52H0z"/></clipPath><clipPath id="a"><path d="M0 0h184v184H0z"/></clipPath></defs><g clip-path="url(#a)" transform="translate(205 304)"><g clip-path="url(#b)"><path fill="#d0a05e" fill-rule="evenodd" d="M91.73.55a4.36 4.36 0 0 0-4.35 4.36v26.12a4.35 4.35 0 0 0 8.7 0V4.91c0-2.4-1.95-4.36-4.35-4.36M48.08 12.22q-1.07.03-2.06.58a4.36 4.36 0 0 0-1.59 5.95l13.06 22.62a4.35 4.35 0 1 0 7.53-4.35L51.96 14.4a4.4 4.4 0 0 0-3.88-2.18m87.3 0a4.4 4.4 0 0 0-3.88 2.18l-13.06 22.62a4.35 4.35 0 1 0 7.53 4.36l13.06-22.63a4.36 4.36 0 0 0-3.65-6.53M16.45 44.1a4.36 4.36 0 0 0-2.3 8.12l22.62 13.06a4.35 4.35 0 1 0 4.35-7.53L18.5 44.68a4.4 4.4 0 0 0-2.05-.59m75.28 0a47.9 47.9 0 0 0-47.89 47.89 47.9 47.9 0 0 0 47.89 47.89 47.9 47.9 0 0 0 47.89-47.9A47.9 47.9 0 0 0 91.73 44.1m75.29 0q-1.07.02-2.06.59l-22.62 13.06a4.35 4.35 0 1 0 4.35 7.53l22.62-13.06a4.35 4.35 0 0 0-2.3-8.12m-75.29 8.7a39.2 39.2 0 0 1 39.18 39.19 39.2 39.2 0 0 1-39.18 39.18 39.2 39.2 0 0 1-39.18-39.18A39.2 39.2 0 0 1 91.73 52.8M4.66 87.64a4.35 4.35 0 0 0 0 8.7h26.12a4.36 4.36 0 0 0 0-8.7Zm148.02 0a4.36 4.36 0 0 0 0 8.7h26.12a4.35 4.35 0 0 0 0-8.7ZM38.84 118.1q-1.08.02-2.07.59l-22.62 13.06a4.35 4.35 0 1 0 4.35 7.53l22.62-13.06a4.35 4.35 0 0 0-2.28-8.12m105.8 0a4.35 4.35 0 0 0-2.3 8.12l22.62 13.06a4.35 4.35 0 1 0 4.35-7.53l-22.62-13.06a4.3 4.3 0 0 0-2.06-.6M61.37 140.4a4.4 4.4 0 0 0-3.89 2.18L44.43 165.2a4.36 4.36 0 0 0 7.53 4.36l13.06-22.62a4.36 4.36 0 0 0-3.64-6.53m60.7 0q-1.06.02-2.05.58a4.36 4.36 0 0 0-1.6 5.95l13.07 22.62a4.35 4.35 0 1 0 7.53-4.36l-13.06-22.61a4.4 4.4 0 0 0-3.88-2.18m-30.35 8.16a4.35 4.35 0 0 0-4.35 4.36v26.12a4.36 4.36 0 0 0 8.7 0v-26.12c0-2.4-1.95-4.36-4.35-4.36m0 0"/></g><g clip-path="url(#c)"><g clip-path="url(#d)"><g clip-path="url(#e)" transform="translate(66 66)"><g clip-path="url(#f)"><g clip-path="url(#g)"><path fill="#e1b981" d="M.12.37h51.26v51.26H.12Zm0 0"/></g></g></g></g></g></g></svg>