<svg xmlns="http://www.w3.org/2000/svg" viewBox="216 170 267 257"><defs><clipPath id="a"><path d="M341 181.36h91V292h-91Zm0 0"/></clipPath><clipPath id="b"><path d="M227.46 267H344v89H227.46Zm0 0"/></clipPath><clipPath id="c"><path d="M301 298h88v117.36h-88Zm0 0"/></clipPath><clipPath id="d"><path d="M355 264h116.96v88H355Zm0 0"/></clipPath><clipPath id="e"><path d="M324.88 267.07h53.69v53.68h-53.7Zm0 0"/></clipPath><clipPath id="f"><path d="M351.72 267.07a26.84 26.84 0 1 0 0 53.68 26.84 26.84 0 0 0 0-53.68m0 0"/></clipPath><clipPath id="h"><path d="M.88.07h53.69v53.68H.87Zm0 0"/></clipPath><clipPath id="i"><path d="M27.72.07a26.84 26.84 0 1 0 0 53.68 26.84 26.84 0 0 0 0-53.68m0 0"/></clipPath><clipPath id="g"><path d="M0 0h55v54H0z"/></clipPath></defs><g clip-path="url(#a)"><path fill="#b18eca" fill-rule="evenodd" d="M351.4 283.43c-4.22-7.76-7.8-20.92-9.35-32.23-1.54-11.32-1.03-20.8.66-28.98 1.7-8.18 4.6-15.06 9.56-21.72 4.96-6.68 11.99-13.14 22.52-16.59s24.58-3.9 35.4 1.83c10.83 5.72 18.44 17.6 20.77 28.99s-.64 22.27-4.83 30.94c-4.2 8.66-9.63 15.1-19.97 23.1s-25.59 17.57-35.64 21.18-14.9 1.24-19.13-6.52m0 0"/></g><path fill="#a884c2" fill-rule="evenodd" d="M351.4 283.43c-4.22-7.76-7.8-20.92-9.35-32.23a100 100 0 0 1-.9-11.14q.47 2.53.94 4.84c2.67 13.12 5.37 19.93 7.54 27.06 1.6 5.29 2.92 10.75 3.82 14.73q-1.07-1.43-2.06-3.26m72.13-32.96c-3.89 6.4-9.03 11.85-17.37 18.3-10.34 8-25.59 17.57-35.64 21.18q-2.3.82-4.26 1.23c3.85-2.68 9.04-6.17 15.08-9.9 9.14-5.63 20.26-11.8 30.35-20.13 4.21-3.48 8.25-7.33 11.84-10.68m-63.1 40.93a10 10 0 0 1-4.06-1.74c.6-1.7 1.42-4.25 2.58-7.89 3.9-12.18 11.7-36.54 18.26-52.2 6.57-15.65 11.9-22.6 15.4-25.75s5.17-2.5-.93 13.68c-6.1 16.2-19.95 47.9-26.88 63.76-2.01 4.62-3.44 7.88-4.37 10.14m0 0"/><g clip-path="url(#b)"><path fill="#b18eca" fill-rule="evenodd" d="M338.39 293.22c-6.28-6.2-17.92-13.3-28.36-17.92s-19.68-6.76-28-7.4c-8.33-.63-15.74.25-23.51 3.17s-15.93 7.88-22.17 17.05-10.55 22.55-8.06 34.54c2.49 12 11.79 22.62 22.07 28 10.3 5.4 21.57 5.57 31.05 3.94s17.16-5.06 27.71-12.79 23.97-19.73 30.22-28.4 5.32-13.98-.95-20.2m0 0"/></g><path fill="#a884c2" fill-rule="evenodd" d="M338.39 293.22c-6.28-6.2-17.92-13.3-28.36-17.92q-5.43-2.39-10.44-3.95l4.39 2.24c11.84 6.2 17.64 10.7 23.88 14.75a207 207 0 0 0 13.09 7.76q-1.08-1.42-2.56-2.88m-51.65 60.21c7.23-1.95 13.88-5.4 22.38-11.62 10.56-7.72 23.97-19.73 30.22-28.4a32 32 0 0 0 2.37-3.75 334 334 0 0 0-13.69 11.76c-7.94 7.23-16.95 16.2-27.74 23.6-4.51 3.08-9.33 5.9-13.54 8.41m56.8-49.3a10 10 0 0 0-.56-4.4c-1.78.11-4.46.19-8.28.3-12.77.37-38.32 1.1-55.18 3.08-16.85 1.97-25 5.17-29 7.66s-3.83 4.28 13.4 2.9c17.23-1.37 51.52-5.9 68.67-8.16 4.99-.66 8.52-1.13 10.95-1.39m0 0"/><g clip-path="url(#c)"><path fill="#b18eca" fill-rule="evenodd" d="M358.96 303.19c6.6 5.87 14.42 17.03 19.7 27.16s8.02 19.21 9.19 27.48.77 15.72-1.64 23.68c-2.4 7.96-6.83 16.42-15.57 23.24s-21.8 12-33.93 10.29-23.3-10.32-29.35-20.24c-6.04-9.93-6.94-21.18-5.93-30.75s3.94-17.47 10.96-28.5 18.13-25.21 26.37-32.01c8.23-6.8 13.6-6.22 20.2-.35m0 0"/></g><path fill="#a884c2" fill-rule="evenodd" d="M358.96 303.19c6.6 5.87 14.42 17.03 19.7 27.16a98 98 0 0 1 4.62 10.17q-1.3-2.23-2.52-4.24c-6.95-11.43-11.8-16.93-16.26-22.9a218 218 0 0 1-8.58-12.56q1.49.97 3.04 2.37m-56.71 55.46c1.48-7.35 4.48-14.2 10.14-23.1 7.02-11.04 18.13-25.21 26.37-32.01a32 32 0 0 1 3.59-2.6 336 336 0 0 1-10.84 14.42c-6.7 8.4-15.06 17.97-21.74 29.23-2.79 4.7-5.28 9.7-7.52 14.06m45.5-59.9a10 10 0 0 1 4.41.27c.02 1.79.11 4.46.25 8.28.45 12.79 1.37 38.35.5 55.3-.88 16.97-3.55 25.32-5.78 29.47-2.22 4.14-4.01 4.1-3.75-13.2s2.55-51.83 3.7-69.1c.33-5.02.57-8.58.68-11.02m0 0"/><g clip-path="url(#d)"><path fill="#b18eca" fill-rule="evenodd" d="M357.97 303.93c3.8 7.97 12.35 18.59 20.61 26.48 8.26 7.88 16.23 13.03 23.85 16.45 7.61 3.42 14.88 5.1 23.19 5 8.3-.12 17.65-2.02 26.62-8.54s17.57-17.63 19.28-29.77c1.72-12.12-3.43-25.26-11.29-33.83s-18.4-12.54-27.87-14.22-17.87-1.05-30.41 2.63c-12.54 3.69-29.23 10.44-38.04 16.48-8.81 6.03-9.75 11.35-5.94 19.32m0 0"/></g><path fill="#a884c2" fill-rule="evenodd" d="M357.97 303.93c3.8 7.97 12.35 18.59 20.61 26.48a99 99 0 0 0 8.49 7.25q-1.78-1.85-3.37-3.6c-9.05-9.85-12.99-16.04-17.48-21.97a216 216 0 0 0-9.68-11.74q.53 1.7 1.43 3.58m68.98-39.14c-7.47-.61-14.88.37-25 3.34-12.54 3.69-29.23 10.44-38.04 16.48a32 32 0 0 0-3.5 2.72 325 325 0 0 0 16.86-6.42c9.92-4.1 21.43-9.5 34.09-12.79 5.28-1.37 10.77-2.39 15.59-3.33m-70.14 27.14a10 10 0 0 0-.96 4.31c1.72.51 4.26 1.35 7.89 2.53 12.15 3.99 36.44 11.96 52.96 15.82s25.28 3.6 29.88 2.62c4.6-1 5.05-2.73-11.62-7.28-16.68-4.55-50.48-11.91-67.37-15.6-4.92-1.07-8.4-1.83-10.78-2.4m0 0"/><path fill="#b18eca" fill-rule="evenodd" d="M352.57 280.58c2.4-8.5 3-22.12 2.02-33.5s-3.56-20.52-7.02-28.12-7.8-13.67-14.1-19.09-14.58-10.17-25.61-11.22c-11.04-1.04-24.83 1.62-34.13 9.58s-14.12 21.23-13.89 32.86c.24 11.61 5.52 21.59 11.52 29.1 6 7.54 12.71 12.62 24.56 18.15s28.82 11.5 39.42 12.8 14.82-2.07 17.23-10.56m0 0"/><path fill="#a884c2" fill-rule="evenodd" d="M352.57 280.58c2.4-8.5 3-22.12 2.02-33.5a98 98 0 0 0-1.57-11.06q.1 2.56.15 4.93c.28 13.37-.86 20.62-1.4 28.05a216 216 0 0 0-.5 15.21q.74-1.63 1.3-3.63m-77.61-16.26c5.19 5.4 11.4 9.56 20.96 14.02 11.84 5.53 28.82 11.5 39.42 12.8q2.43.3 4.43.27a332 332 0 0 0-16.9-6.33c-10.15-3.48-22.34-7.05-34.02-12.95-4.88-2.47-9.66-5.34-13.9-7.81m70.54 26.03a10 10 0 0 0 3.57-2.6 429 429 0 0 1-4.24-7.12c-6.48-11.02-19.44-33.08-29.3-46.9-9.84-13.83-16.57-19.44-20.68-21.74s-5.59-1.3 3.92 13.15 30 42.34 40.24 56.28c2.98 4.05 5.1 6.93 6.5 8.93m0 0"/><path fill="#926bad" fill-rule="evenodd" d="M337.13 274.07c5.01-4.36 11.28-5.47 16.72-5.14a26 26 0 0 1 13.83 4.79 22 22 0 0 1 8.31 11.07 23.4 23.4 0 0 1-.28 15.54c-2 5.13-6.16 9.69-10.33 12.86s-8.36 4.96-13.29 4.96-10.6-1.8-15.3-6.17-8.45-11.35-8.43-18.64c0-7.3 3.76-14.9 8.77-19.27m0 0"/><path fill="#8a64a6" fill-rule="evenodd" d="M337.13 274.07c5.01-4.36 11.28-5.47 16.72-5.14a26 26 0 0 1 13.83 4.79 22 22 0 0 1 8.31 11.07 23.4 23.4 0 0 1-.28 15.54c-2 5.13-6.16 9.69-10.33 12.86s-8.36 4.96-13.29 4.96-10.6-1.8-15.3-6.17a27 27 0 0 1-4.9-6.16c2.66-.6 6.4.35 9.52.88 4.51.78 7.75.7 11.69-.3s8.56-2.92 11.03-6.18 2.78-7.86 1.8-11.9-3.26-7.54-7.32-9.28-9.89-1.72-16.4 1.12c-4.53 1.99-9.4 5.34-13.2 7.78 1.29-5.45 4.35-10.58 8.12-13.87m0 0"/><g clip-path="url(#e)"><g clip-path="url(#f)"><g clip-path="url(#g)" transform="translate(324 267)"><g clip-path="url(#h)"><g clip-path="url(#i)"><path fill="#eadcf2" d="M.88.07h53.69v53.68H.87Zm0 0"/></g></g></g></g></g></svg>