<svg xmlns="http://www.w3.org/2000/svg" viewBox="109 83 358 492"><defs><clipPath id="a"><path d="M239 103h208v306H239Zm0 0"/></clipPath><clipPath id="b"><path d="m273.68 90.77 202.43 35.4-54.52 311.77-202.43-35.4Zm0 0"/></clipPath><clipPath id="c"><path d="m273.68 90.77 202.43 35.4-54.52 311.77-202.43-35.4Zm0 0"/></clipPath><clipPath id="d"><path d="m273.7 90.77 202 35.33-54.57 312.05-202-35.32Zm0 0"/></clipPath><clipPath id="e"><path d="M129.57 237.6h205.07v316.5H129.57Zm0 0"/></clipPath></defs><g clip-path="url(#a)"><g clip-path="url(#b)"><g clip-path="url(#c)"><g clip-path="url(#d)"><path fill="#d9e3d1" d="M352.07 112.23a152 152 0 0 0-4.43-6.64c-.6-.85-1.25-1.73-2.14-2.15-1.94-.92-4 .62-5.53 2.15-19.13 19.14-28.4 47.95-30.45 76.6-2.05 28.66 2.43 57.56 7.13 86.06 1.79 10.86 3.61 22.03 1.69 32.75-1.7 9.45-6.2 17.9-10.97 25.9a302 302 0 0 1-47.66 60.83c10.04-26.93 19.91-54.25 23.94-83.17s1.78-59.95-11.32-86.02c-10.7 13.83-21.2 28.27-27.42 45.16-6.22 16.9-7.74 36.79-.52 53.64 3.66 8.55 9.34 15.89 13.76 24.01s7.6 17.78 5.5 26.75c-1.77 7.57-6.97 13.39-11.15 19.66-3.51 5.27-10.72 19.76-1.53 20.61 5.5.5 16.53-12.28 20.5-15.87 12.84-11.6 25.74-25.52 43.28-27.7 15.36-1.92 30.65 5.9 46.18 6.5 18.88.73 36.74-9.4 50.28-23.37s23.41-31.6 33.13-49.02c1.52-2.73 3.05-6.23 1.48-9.03-1.21-2.16-3.75-2.84-6.02-3.25-40.37-7.3-82.98 7.69-111.06 39.09-8.25 9.22-15.26 19.69-23.25 29.17-15.47 18.36-34.38 32.75-53.13 47 34.14-35.73 62.59-77.39 90.87-118.85 10.13-14.84 20.36-29.9 26.61-47.18 14.41-39.85 5.1-87.39-17.77-123.63"/></g></g></g></g><g clip-path="url(#e)"><path fill="#aabb9c" d="M210.47 245.23a155 155 0 0 0-5.51-5.78c-.74-.73-1.53-1.48-2.48-1.75-2.07-.57-3.84 1.31-5.07 3.07-15.55 22.16-19.72 52.14-16.8 80.71 2.91 28.58 12.3 56.28 21.84 83.54 3.64 10.4 7.35 21.09 7.3 31.98-.04 9.6-3.02 18.7-6.34 27.4a302 302 0 0 1-36.46 68.12c5.24-28.25 10.26-56.86 9.25-86.04-1.02-29.18-8.57-59.37-25.97-82.8-8.16 15.48-16.01 31.5-19.23 49.22s-1.29 37.57 8.73 52.93c5.08 7.79 11.94 14.04 17.69 21.28 5.74 7.24 10.55 16.2 10.03 25.4-.45 7.76-4.56 14.39-7.6 21.28-2.56 5.8-7.16 21.32 2.04 20.57 5.5-.45 14.17-14.95 17.45-19.15 10.66-13.66 20.97-29.59 37.87-34.76 14.8-4.53 31.21.53 46.61-1.55 18.73-2.52 34.57-15.58 45.5-31.68s17.62-35.16 24.2-53.99c1.02-2.95 1.93-6.66-.1-9.14-1.57-1.93-4.19-2.16-6.49-2.17-41.02-.24-80.42 21.87-102.67 57.63-6.54 10.5-11.63 22.02-17.87 32.74-12.08 20.75-28.23 38.19-44.25 55.46 27.48-41.09 48.32-87.02 69.04-132.73 7.42-16.37 14.91-32.96 18.09-51.07 7.33-41.73-10.03-86.95-38.8-118.72"/></g></svg>