<svg xmlns="http://www.w3.org/2000/svg" viewBox="237 309 122 187"><defs><clipPath id="a"><path d="M245.54 317.69h105v170.25h-105Zm0 0"/></clipPath></defs><g clip-path="url(#a)"><path fill="#4b2e59" d="M289.27 477.46c9.91-6.09 12.16-16.71 15.08-26.32 7.54-24.76 23.96-30.29 34-51.91 6.61-14.26 7.08-29.94 1.88-44.7-5.37-15.23-18.02-26.75-34.14-29.44-22.55-3.75-43.37 9.39-49.93 30.95-1.89 6.19-3.09 12.1-2.9 18.7.05 2.03-1.11 3.49-2.75 3.74-1.35.21-3.73-.48-3.8-2.48-.34-10.77 1.74-21.18 6.74-30.8 11.13-21.43 34.24-31.46 57.54-25.84 30.9 7.46 44.46 41.1 37.76 70.22-2.66 11.57-8.45 21.51-16.03 30.37-2.44 2.85-4.6 5.7-7.15 8.35-19.68 20.51-12.69 34.7-26.39 49.53-12.85 13.91-34.86 13.2-46.57-1.6-5.95-7.52-8.07-16.79-6.66-26.16.3-2.04 2.28-2.76 3.78-2.59 5.2.59-.05 8.69 4.69 19.18 6.07 13.47 21.87 18.79 34.85 10.8m0 0"/></g><path fill="#4b2e59" d="M261.36 437.39c-1.56-12.34 10.75-14.42 8.24-24.03-1.44-5.56-7.85-4.6-7.38-8.8.23-1.99 2.2-3.35 4.37-2.67 4.33 1.34 7.8 5.3 8.95 8.44 2 5.38 1.4 10.42-1.7 14.46l-4.7 6.15a6.55 6.55 0 0 0-.45 7.52 4.3 4.3 0 0 0 3.62 2c6.92-.21 2.37-12.76 17.62-18.97 4.67-1.9 8.23-5.32 9.2-10.43 3.13-16.6-9.68-30.42-25.38-31.65 1.74 9.48 10.06 11.5 8.23 16.11-.57 1.43-3 2.48-4.46 1.34a28.6 28.6 0 0 1-9.4-12.87c-5.37-14.86.1-31.88 13.6-40.39 8.38-5.27 18.7-5.9 27.89-2.54 18.26 6.7 24.74 30.32 18.58 48.07-.69 2-2.27 2.71-3.92 2.45a3.24 3.24 0 0 1-2.43-4.37c3.82-10.48 2.32-23.46-4.5-32.22a24.07 24.07 0 0 0-31.51-6.03c-8.24 4.82-12.95 13.66-12.95 23.49 15.01.97 27.6 10.55 32.1 24.8a28 28 0 0 1-.65 19c-4 10.1-13.26 10.95-17.23 14.73-4.56 4.35-4.1 16.57-15.53 15.87a10.85 10.85 0 0 1-10.22-9.46Zm0 0"/></svg>