<svg xmlns="http://www.w3.org/2000/svg" viewBox="169 240 274 345"><defs><clipPath id="a"><path d="M183.6 254.29h244.5v315.75H183.6Zm0 0"/></clipPath></defs><g clip-path="url(#a)"><path fill="#8a64a6" d="M402.15 376.36v-25.92c0-53-43.14-96.15-96.15-96.15-53 0-96.16 43.13-96.16 96.15v25.92a26.86 26.86 0 0 0-26.18 26.83v140.06a27 27 0 0 0 9.83 20.8 27 27 0 0 0 11.82 5.6 27 27 0 0 0 5.25.5h190.87a27 27 0 0 0 20.8-9.83 26 26 0 0 0 2.93-4.39 26 26 0 0 0 2.66-7.43 27 27 0 0 0 .52-5.25V403.2a26.87 26.87 0 0 0-26.19-26.83m-74.14 77.5a41 41 0 0 1-.63 2.89 22.3 22.3 0 0 1-10.67 13.2l8.64 36.83a5 5 0 0 1 .2 2.35 5 5 0 0 1-.88 2.2 5 5 0 0 1-4.07 2.17h-28.62a5 5 0 0 1-4.06-2.17 5.1 5.1 0 0 1-.68-4.55l8.05-36.83a22.3 22.3 0 0 1-10.67-13.2 40 40 0 0 1-.63-2.89 22 22 0 0 1 .73-9.56 21 21 0 0 1 2.79-5.9 22 22 0 0 1 4.38-4.83 23 23 0 0 1 5.6-3.36 21 21 0 0 1 4.17-1.26 21 21 0 0 1 4.34-.43 21 21 0 0 1 4.34.43 21 21 0 0 1 4.17 1.26 22 22 0 0 1 11.1 10.07 23 23 0 0 1 2.2 6.14 21 21 0 0 1 .42 4.34q0 1.56-.22 3.1m41.31-77.58H242.67v-25.84A63.4 63.4 0 0 1 306 287.11a63.4 63.4 0 0 1 63.32 63.33Zm0 0"/></g></svg>