<svg xmlns="http://www.w3.org/2000/svg" viewBox="177 274 257 295"><defs><clipPath id="a"><path d="M189 286.5h233v270.47H189Zm0 0"/></clipPath></defs><g clip-path="url(#a)"><path fill="#8a64a6" fill-rule="evenodd" d="M305.98 401.79c25.27-35.98 73.04-35.46 97.2-16.6 24.7 19.27 25.18 57.81.5 96.36-16.95 28.33-60.43 56.3-96.73 75.18a2.1 2.1 0 0 1-1.95 0c-36.3-18.89-79.78-46.85-96.73-75.18-24.68-38.55-24.2-77.09.5-96.36 24.16-18.86 71.94-19.38 97.2 16.6m-1.84 4.82c-23.24-36.14-69.58-36.2-92.77-18.09-20.15 15.72-22.5 45.05-7.65 76.2.13-3.17-11.1-67.47 44.42-67.84 6.61.55 24.7.08 35.88 14.32 9.46 12.01 19.42 28.77 34.78 32.09 12.8 2.77 47.18 1.25 63.46-22.76-.13-.12-.31-.16-.51-.22a6 6 0 0 0-1.74-.1c-2.1.1-4.85.75-8.05 1.66-9.57 2.75-22.77 7.79-34.49 8.7-8.38.64-16.02-.82-21.37-6.17-5.39-5.38-5.1-7.64-11.81-17.55l-.1-.14zm61.4 108.61c14.7-11.38 27.18-23.57 34.53-35.87l.04-.05c23.26-36.31 23.74-72.62.48-90.78-11.33-8.84-28.18-13.36-45.16-11.44-20.98 8-32.75 23.2-25.4 49.2q3.42.37 7.11.07c11.44-.9 24.32-5.85 33.66-8.53 4.36-1.26 8.02-2.01 10.53-1.83 2.49.18 4.11 1.2 4.91 2.92 1.05 2.23.94 4.84-.34 7.66-1.56 3.51-5.02 7.46-9.85 11.32-10.73 8.61-28.3 17.03-45.15 19.77-11.5 1.88-22.69 1.08-31.25-3.87-23.44-13.54-37.17-31.74-37.17-31.74q-.1-.15-.18-.32s37.39 91.79 136.92 19.62c-.99 10.83-6.32 48.68-33.68 73.87m16.12-228.71a40.3 40.3 0 0 1 40.27 40.26 40.3 40.3 0 0 1-40.27 40.27 40.28 40.28 0 0 1 0-80.54m31.38 58a36.07 36.07 0 0 0-49.12-49.11 36.05 36.05 0 0 0 49.12 49.11m-182.86-58a40.3 40.3 0 0 1 40.27 40.26 40.3 40.3 0 0 1-40.27 40.27 40.28 40.28 0 0 1 0-80.54m29.98 60.27a36.06 36.06 0 0 0-49.98-49.99 36.07 36.07 0 0 0 29.98 56.06c7.39 0 14.27-2.24 20-6.07m0 0"/></g></svg>