<svg xmlns="http://www.w3.org/2000/svg" viewBox="151 246 310 330"><defs><clipPath id="b"><path d="M72 208h209.71v93.4H72Zm0 0"/></clipPath><clipPath id="c"><path d="M.2 179H88v93H.2Zm0 0"/></clipPath><clipPath id="d"><path d="M123 .16h93V84h-93Zm0 0"/></clipPath><clipPath id="e"><path d="M123 1h95.54v83.04H123Zm0 0"/></clipPath><clipPath id="a"><path d="M0 0h283v302H0z"/></clipPath></defs><g clip-path="url(#a)" transform="translate(165 260)"><path fill="#4b2e59" d="M177 106.75a46.76 46.76 0 0 0-46.7 46.71 46.75 46.75 0 0 0 46.7 46.7 46.75 46.75 0 0 0 46.7-46.7 46.75 46.75 0 0 0-46.7-46.7m0 104.1a57.45 57.45 0 0 1-57.39-57.39 57.46 57.46 0 0 1 57.4-57.4 57.46 57.46 0 0 1 57.38 57.4 57.45 57.45 0 0 1-57.39 57.4"/><g clip-path="url(#b)"><path fill="#4b2e59" d="M276.48 301.4H77.54a5.34 5.34 0 0 1-5.34-5.34c0-34.22 16.76-66.36 44.86-85.99a5.35 5.35 0 0 1 6.11 8.77 94.3 94.3 0 0 0-40.14 71.88h187.95A94.1 94.1 0 0 0 229.63 218a5.34 5.34 0 0 1 5.98-8.86 104.8 104.8 0 0 1 46.2 86.91 5.33 5.33 0 0 1-5.33 5.35"/></g><path fill="#4b2e59" d="M105 180.8a57.45 57.45 0 0 1-57.38-57.39A57.46 57.46 0 0 1 105 66.02a57 57 0 0 1 40.58 16.8 5.34 5.34 0 0 1-7.55 7.56A46.4 46.4 0 0 0 105 76.7a46.75 46.75 0 0 0-46.7 46.71 46.76 46.76 0 0 0 46.7 46.7 5.34 5.34 0 1 1 0 10.69"/><g clip-path="url(#c)"><path fill="#4b2e59" d="M82.16 271.35H5.54a5.34 5.34 0 0 1-5.34-5.34c0-34.22 16.77-66.37 44.86-85.98a5.33 5.33 0 1 1 6.12 8.75 94.3 94.3 0 0 0-40.14 71.89h71.12a5.34 5.34 0 1 1 0 10.68"/></g><g clip-path="url(#d)"><path fill="#f2c5cb" d="M215.46 21.32c-5.2-26.78-37.82-27.22-45.87-2.2-8.04-25.02-40.67-24.58-45.88 2.2C119 45.6 169.6 83.93 169.6 83.93s50.6-38.32 45.87-62.61m0 0"/></g><g clip-path="url(#e)"><path fill="#c46d84" d="M170.78 84.08a1.6 1.6 0 0 1-1.14-.47l-33.2-33.2-.15-.17-5.9-5.9a25.1 25.1 0 0 1 0-35.47 25.1 25.1 0 0 1 35.48 0l4.92 4.92 4.92-4.92a25.1 25.1 0 0 1 42.82 17.74c0 6.7-2.6 13-7.35 17.73l-5.9 5.9q-.05.09-.14.16l-33.2 33.21q-.43.41-1 .47zm-31.93-35.77 31.94 31.93 31.94-31.94.15-.16 6.05-6.05a21.7 21.7 0 0 0 6.41-15.48c0-5.85-2.28-11.35-6.41-15.48a21.9 21.9 0 0 0-30.96 0l-6.05 6.05a1.6 1.6 0 0 1-2.26 0l-6.05-6.05a21.9 21.9 0 0 0-30.95 0 21.9 21.9 0 0 0 0 30.96l6.04 6.05zm0 0"/></g></g></svg>