<svg xmlns="http://www.w3.org/2000/svg" viewBox="154 268 304 203"><defs><clipPath id="a"><path d="M167.36 281.7h175.5v175.5h-175.5Zm0 0"/></clipPath><clipPath id="b"><path d="M255.13 281.7a87.78 87.78 0 1 0 0 175.55 87.78 87.78 0 0 0 0-175.56m0 0"/></clipPath><clipPath id="c"><path d="M171.07 285.41H339.2v168.11H171.07Zm0 0"/></clipPath><clipPath id="d"><path d="M255.13 285.41a84.06 84.06 0 1 0 0 168.11 84.06 84.06 0 0 0 0-168.11m0 0"/></clipPath><clipPath id="f"><path d="M.07.41H168.2v168.11H.07Zm0 0"/></clipPath><clipPath id="g"><path d="M84.13.41a84.06 84.06 0 1 0 0 168.11 84.06 84.06 0 0 0 0-168.11m0 0"/></clipPath><clipPath id="e"><path d="M0 0h169v169H0z"/></clipPath><clipPath id="h"><path d="M269.1 281.7h175.54v175.54H269.1Zm0 0"/></clipPath><clipPath id="i"><path d="M356.87 281.7a87.78 87.78 0 1 0 0 175.54 87.78 87.78 0 0 0 0-175.55m0 0"/></clipPath><clipPath id="k"><path d="M.1.7h175.54v175.54H.1Zm0 0"/></clipPath><clipPath id="l"><path d="M87.87.7a87.78 87.78 0 1 0 0 175.54A87.78 87.78 0 0 0 87.87.7m0 0"/></clipPath><clipPath id="j"><path d="M0 0h176v177H0z"/></clipPath><clipPath id="m"><path d="M269.1 281.7h175.5v175.5H269.1Zm0 0"/></clipPath><clipPath id="n"><path d="M356.87 281.7a87.78 87.78 0 1 0 0 175.54 87.78 87.78 0 0 0 0-175.55m0 0"/></clipPath></defs><g clip-path="url(#a)"><g clip-path="url(#b)"><path fill="none" stroke="#8a64a6" stroke-width="6" d="M255.13 281.7a87.78 87.78 0 1 0 0 175.55 87.78 87.78 0 0 0 0-175.56Zm0 0"/></g></g><g clip-path="url(#c)"><g clip-path="url(#d)"><g clip-path="url(#e)" transform="translate(171 285)"><g clip-path="url(#f)"><g clip-path="url(#g)"><path fill="#eadcf2" d="M.07.41H168.2v168.11H.07Zm0 0"/></g></g></g></g></g><g clip-path="url(#h)"><g clip-path="url(#i)"><g clip-path="url(#j)" transform="translate(269 281)"><g clip-path="url(#k)"><g clip-path="url(#l)"><path fill="#d9e3d1" d="M.1.7h175.54v175.54H.1Zm0 0"/></g></g></g></g></g><g clip-path="url(#m)"><g clip-path="url(#n)"><path fill="none" stroke="#496851" stroke-width="6" d="M356.87 281.7a87.78 87.78 0 1 0 0 175.54 87.78 87.78 0 0 0 0-175.55Zm0 0"/></g></g></svg>