<svg xmlns="http://www.w3.org/2000/svg" viewBox="175 300 261 249" preserveAspectRatio="xMidYMid meet"><defs><clipPath id="703fae6bcc"><path d="M 184 308.222656 L 428 308.222656 L 428 540.722656 L 184 540.722656 Z M 184 308.222656 " clip-rule="nonzero"/></clipPath><clipPath id="dd2541398f"><path d="M 183.601562 308.222656 L 428 308.222656 L 428 539.972656 L 183.601562 539.972656 Z M 183.601562 308.222656 " clip-rule="nonzero"/></clipPath></defs><g clip-path="url(#703fae6bcc)"><path fill="#eadcf2" d="M 427.144531 396.59375 C 426.726562 394.933594 425.484375 394.101562 423.824219 393.6875 L 344.996094 382.070312 L 309.730469 311.125 C 308.484375 308.222656 303.507812 308.222656 302.261719 311.125 L 266.996094 382.484375 L 188.167969 394.101562 C 186.507812 394.515625 185.265625 395.347656 184.851562 397.007812 C 184.433594 398.667969 184.851562 400.324219 186.09375 401.15625 L 243.347656 456.75 L 230.074219 535.164062 C 229.65625 536.824219 230.488281 538.484375 231.730469 539.3125 C 232.976562 540.140625 234.636719 540.558594 236.296875 539.726562 L 306.828125 502.800781 L 377.355469 539.726562 C 377.773438 540.140625 378.601562 540.140625 379.429688 540.140625 C 380.261719 540.140625 381.089844 539.726562 381.921875 539.3125 C 383.164062 538.484375 383.996094 536.824219 383.582031 535.164062 L 370.304688 456.75 L 426.3125 401.15625 C 427.144531 399.910156 427.558594 398.25 427.144531 396.59375 Z M 427.144531 396.59375 " fill-opacity="1" fill-rule="nonzero"/></g><g clip-path="url(#dd2541398f)"><path fill="#4b2e59" d="M 376.613281 539.753906 C 375.410156 539.761719 374.289062 539.453125 373.257812 538.832031 L 305.355469 497.832031 L 237.453125 538.832031 C 236.914062 539.15625 236.339844 539.394531 235.730469 539.550781 C 235.121094 539.707031 234.5 539.773438 233.871094 539.746094 C 233.242188 539.71875 232.628906 539.597656 232.035156 539.390625 C 231.441406 539.183594 230.886719 538.894531 230.378906 538.523438 C 229.871094 538.152344 229.425781 537.71875 229.042969 537.214844 C 228.664062 536.714844 228.363281 536.167969 228.144531 535.578125 C 227.925781 534.988281 227.792969 534.378906 227.753906 533.75 C 227.714844 533.121094 227.765625 532.5 227.910156 531.886719 L 245.933594 454.59375 L 185.863281 402.59375 C 185.386719 402.179688 184.980469 401.707031 184.644531 401.175781 C 184.308594 400.640625 184.054688 400.074219 183.886719 399.464844 C 183.71875 398.859375 183.640625 398.242188 183.652344 397.613281 C 183.667969 396.984375 183.769531 396.367188 183.964844 395.769531 C 184.160156 395.171875 184.4375 394.613281 184.796875 394.097656 C 185.15625 393.578125 185.582031 393.125 186.078125 392.734375 C 186.570312 392.339844 187.109375 392.03125 187.695312 391.796875 C 188.28125 391.566406 188.886719 391.421875 189.511719 391.367188 L 268.5625 384.65625 L 299.460938 311.769531 C 299.746094 311.234375 300.097656 310.75 300.515625 310.308594 C 300.933594 309.871094 301.402344 309.496094 301.921875 309.183594 C 302.441406 308.871094 302.992188 308.636719 303.578125 308.472656 C 304.160156 308.3125 304.757812 308.230469 305.363281 308.230469 C 305.96875 308.230469 306.5625 308.3125 307.148438 308.472656 C 307.730469 308.636719 308.28125 308.871094 308.800781 309.183594 C 309.320312 309.496094 309.789062 309.871094 310.207031 310.308594 C 310.625 310.75 310.976562 311.234375 311.261719 311.769531 L 342.152344 384.65625 L 421.210938 391.367188 C 421.839844 391.421875 422.445312 391.566406 423.027344 391.800781 C 423.613281 392.035156 424.152344 392.347656 424.644531 392.738281 C 425.136719 393.128906 425.5625 393.585938 425.921875 394.101562 C 426.277344 394.617188 426.554688 395.175781 426.75 395.773438 C 426.941406 396.375 427.046875 396.988281 427.058594 397.617188 C 427.074219 398.246094 426.996094 398.863281 426.828125 399.46875 C 426.65625 400.074219 426.40625 400.644531 426.066406 401.175781 C 425.730469 401.707031 425.324219 402.179688 424.851562 402.59375 L 364.828125 454.59375 L 382.851562 531.886719 C 382.964844 532.355469 383.019531 532.832031 383.023438 533.316406 C 383.023438 533.800781 382.972656 534.277344 382.867188 534.746094 C 382.761719 535.21875 382.605469 535.671875 382.398438 536.105469 C 382.1875 536.542969 381.933594 536.949219 381.636719 537.328125 C 381.335938 537.707031 380.996094 538.046875 380.621094 538.347656 C 380.242188 538.648438 379.835938 538.90625 379.402344 539.117188 C 378.96875 539.324219 378.515625 539.484375 378.042969 539.59375 C 377.574219 539.699219 377.097656 539.753906 376.613281 539.753906 Z M 305.355469 483.933594 C 306.542969 483.9375 307.644531 484.25 308.660156 484.867188 L 366.929688 520.023438 L 351.476562 453.734375 C 351.347656 453.167969 351.292969 452.59375 351.320312 452.011719 C 351.34375 451.429688 351.445312 450.859375 351.628906 450.304688 C 351.808594 449.75 352.058594 449.230469 352.382812 448.746094 C 352.703125 448.261719 353.085938 447.828125 353.527344 447.445312 L 405.003906 402.847656 L 337.21875 397.09375 C 336.640625 397.046875 336.078125 396.925781 335.535156 396.722656 C 334.988281 396.523438 334.480469 396.253906 334.007812 395.914062 C 333.535156 395.578125 333.117188 395.183594 332.753906 394.730469 C 332.390625 394.277344 332.09375 393.785156 331.863281 393.253906 L 305.355469 330.679688 L 278.863281 393.214844 C 278.632812 393.746094 278.332031 394.238281 277.96875 394.691406 C 277.605469 395.144531 277.1875 395.539062 276.714844 395.878906 C 276.246094 396.214844 275.734375 396.484375 275.191406 396.683594 C 274.644531 396.886719 274.085938 397.007812 273.507812 397.058594 L 205.71875 402.808594 L 257.195312 447.40625 C 257.636719 447.789062 258.019531 448.222656 258.34375 448.707031 C 258.664062 449.191406 258.917969 449.710938 259.097656 450.265625 C 259.277344 450.820312 259.378906 451.390625 259.40625 451.972656 C 259.429688 452.554688 259.378906 453.128906 259.246094 453.699219 L 243.78125 520.023438 L 302.050781 484.867188 C 303.066406 484.25 304.167969 483.9375 305.355469 483.933594 Z M 305.355469 483.933594 " fill-opacity="1" fill-rule="nonzero"/></g></svg>