<svg xmlns="http://www.w3.org/2000/svg" viewBox="159 250 257 222"><defs><clipPath id="b"><path d="M64 1h107v95.9H64Zm0 0"/></clipPath><clipPath id="c"><path d="M63 2h109.97v95.46H63Zm0 0"/></clipPath><clipPath id="d"><path d="M123 7.43h111.27v193.26H123Zm0 0"/></clipPath><clipPath id="e"><path d="M.75 7.43H112v193.26H.75Zm0 0"/></clipPath><clipPath id="a"><path d="M0 0h235v201H0z"/></clipPath></defs><g clip-path="url(#a)" transform="translate(170 260)"><g clip-path="url(#b)"><path fill="#eadcf2" d="M170.34 25.05c-5.98-30.79-43.5-31.3-52.76-2.52-9.25-28.78-46.78-28.27-52.76 2.52-5.43 27.94 52.76 72.01 52.76 72.01s58.2-44.07 52.76-72m0 0"/></g><g clip-path="url(#c)"><path fill="#4b2e59" d="M117.97 97.24c-.49 0-.96-.2-1.3-.54l-38.2-38.2-.16-.18-6.78-6.78a28.9 28.9 0 0 1 0-40.8 28.9 28.9 0 0 1 40.8 0l5.65 5.66 5.66-5.66a28.9 28.9 0 0 1 40.8 0 28.7 28.7 0 0 1 8.45 20.4c0 7.7-3 14.95-8.45 20.4l-6.78 6.78q-.07.1-.17.19L119.3 96.7c-.3.3-.72.5-1.16.53zM81.25 56.09l36.73 36.73 36.74-36.73.17-.2 6.95-6.95a25 25 0 0 0 7.37-17.8 25 25 0 0 0-7.37-17.8 25.2 25.2 0 0 0-35.6 0l-6.96 6.96a1.83 1.83 0 0 1-2.6 0l-6.95-6.96a25.2 25.2 0 0 0-35.6 0 25.2 25.2 0 0 0 0 35.6l6.95 6.96zm0 0"/></g><path fill="#4b2e59" d="M184.68 99.38a2.7 2.7 0 0 1-2.48-1.65 3 3 0 0 1-.18-1.36l6.39-51.1.57-4.66a14 14 0 0 1 .76-3.2 15.06 15.06 0 0 1 18.61-9.32l.17.05a2.65 2.65 0 0 1 1.96 2.3 2.7 2.7 0 0 1-2.45 2.96q-.54.05-1.05-.13l-.2-.05a9 9 0 0 0-3.12-.43 9.6 9.6 0 0 0-6.63 2.87 10 10 0 0 0-1.82 2.58 10 10 0 0 0-.9 3.03l-.58 4.68L187.34 97a2.6 2.6 0 0 1-.87 1.7 2.7 2.7 0 0 1-1.8.68m0 0"/><path fill="#4b2e59" d="m167.94 111.77-.33-.02a2.6 2.6 0 0 1-1.79-1.01 2.7 2.7 0 0 1-.54-1.98l6.58-52.64a15 15 0 0 1 7.17-11.02 15 15 0 0 1 7.76-2.17h4.27a2.7 2.7 0 0 1 1.9.78 2.7 2.7 0 0 1 .58 2.93 2.6 2.6 0 0 1-1.45 1.45q-.5.2-1.03.2h-4.27a10 10 0 0 0-3.42.64 9 9 0 0 0-2.99 1.8 9.7 9.7 0 0 0-3.2 6.06l-6.58 52.64a2.6 2.6 0 0 1-.88 1.67 2.7 2.7 0 0 1-1.78.67m0 0"/><g clip-path="url(#d)"><path fill="#4b2e59" d="M174.05 200.45h-38.91a10 10 0 0 1-4.94-1.31 10 10 0 0 1-2.63-2.2 10 10 0 0 1-1.72-2.96 10 10 0 0 1-.45-1.66c-2.09-11.43-3.1-29.03 3.96-48q.34-.95.75-1.95a61.2 61.2 0 0 1 29.73-31.94 103 103 0 0 0 22.92-15.63l.12-.1c5.32-4.83 9.33-9.45 12.56-13.15l1.79-2.04 1.75-10.97 6.12-38.27 1.8-11.24a14 14 0 0 1 3.22-6.88 14 14 0 0 1 4-3.16 14 14 0 0 1 9.96-1.1 13.6 13.6 0 0 1 6.51 3.93 14 14 0 0 1 3.69 9.32 2565 2565 0 0 1-.42 57.95c-.46 23.7-9.24 46.5-24.72 64.17l-.14.15-.18.2a239 239 0 0 1-18.9 19.2 18.2 18.2 0 0 0-5.97 13.5v14.23a10 10 0 0 1-.75 3.8 10 10 0 0 1-2.15 3.2 10 10 0 0 1-5.07 2.72 10 10 0 0 1-1.93.2M186.6 98.58l-.11.1a107 107 0 0 1-17.17 12.71q-3.56 2.1-7.08 3.86c-12.5 6.22-22.14 16.56-27.14 29.11l-.7 1.82c-6.62 17.84-5.68 34.41-3.71 45.18a4.4 4.4 0 0 0 1.55 2.67 4.5 4.5 0 0 0 2.9 1.06h38.92a4.5 4.5 0 0 0 3.2-1.33 5 5 0 0 0 .99-1.47 5 5 0 0 0 .35-1.74v-14.24a23.5 23.5 0 0 1 7.73-17.46 234 234 0 0 0 18.48-18.79l.14-.15.17-.2a95 95 0 0 0 23.38-60.73 2488 2488 0 0 0 .42-57.82 8.3 8.3 0 0 0-2.26-5.68 9 9 0 0 0-2.5-1.84 8.4 8.4 0 0 0-11.95 6.24l-1.8 11.24-6.12 38.26-.68 4.24a5.4 5.4 0 0 1 4.8-.4c1.84.74 3.22 2.48 4.12 5.14 2.02 6 1.42 17.05-3.67 25.67-2.98 5.04-6.46 7.56-10.15 10.24-3.36 2.44-6.84 4.97-10.44 9.86a45 45 0 0 0-7.52 16.35 2.6 2.6 0 0 1-1.2 1.7 2.7 2.7 0 0 1-2.05.32 2.65 2.65 0 0 1-2.02-2.23q-.08-.53.06-1.06a51 51 0 0 1 8.4-18.26c4.09-5.57 8.08-8.47 11.6-11.01 3.37-2.44 6.27-4.55 8.68-8.63 4.07-6.9 4.76-15.83 3.35-20.77-.43-1.5-.94-2.14-1.15-2.31-.52.13-1.75 1-4.64 4.23l-.06.07q-1.04 1.17-2.23 2.55c-3.3 3.79-7.39 8.5-12.89 13.5m0 0"/></g><path fill="#4b2e59" d="M50.42 99.38q-.5 0-.97-.17a2.6 2.6 0 0 1-1.44-1.3q-.22-.44-.27-.94l-6.38-51.02-.57-4.69a9.5 9.5 0 0 0-2.02-4.8 9 9 0 0 0-1.48-1.5 10 10 0 0 0-2.74-1.57 10 10 0 0 0-4.15-.58 9 9 0 0 0-2.07.4l-.2.06a2.68 2.68 0 1 1-1.55-5.14l.19-.05a14 14 0 0 1 3.21-.62 15.3 15.3 0 0 1 7.96 1.56 16 16 0 0 1 3.96 2.88 15 15 0 0 1 2.82 4 15 15 0 0 1 1.4 4.7l.57 4.68 6.4 51.08.01.34a2.6 2.6 0 0 1-.78 1.9 2.6 2.6 0 0 1-1.9.78m0 0"/><path fill="#4b2e59" d="M67.16 111.77a2.7 2.7 0 0 1-2.37-1.43q-.23-.43-.3-.91l-6.58-52.64a9.8 9.8 0 0 0-3.2-6.06 9.8 9.8 0 0 0-6.4-2.44h-4.28a2.6 2.6 0 0 1-1.9-.78 2.6 2.6 0 0 1-.78-1.9A2.7 2.7 0 0 1 43 43.13q.5-.2 1.02-.2h4.27a15.3 15.3 0 0 1 7.77 2.16 15.2 15.2 0 0 1 6.6 8.37q.4 1.3.58 2.66l6.57 52.64a2.6 2.6 0 0 1-.54 1.98 2.7 2.7 0 0 1-2.12 1.03m0 0"/><g clip-path="url(#e)"><path fill="#4b2e59" d="M99.96 200.45H61.04a10 10 0 0 1-7-2.9 10 10 0 0 1-2.14-3.21 10 10 0 0 1-.76-3.79v-14.24a18.2 18.2 0 0 0-5.97-13.48 240 240 0 0 1-18.9-19.22l-.17-.19-.13-.14a100 100 0 0 1-18.03-29.9 100 100 0 0 1-6.7-34.29 2612 2612 0 0 1-.42-57.94 13.6 13.6 0 0 1 2.13-7.3A13.6 13.6 0 0 1 8.6 8.8a14 14 0 0 1 4.93-1.33A14 14 0 0 1 20.98 9a13.9 13.9 0 0 1 7.22 10.04L30 30.28l6.12 38.27 1.76 10.97 1.78 2.04a147 147 0 0 0 12.67 13.26 103 103 0 0 0 16.2 11.97q3.38 1.99 6.72 3.66a61 61 0 0 1 29.74 31.94q.4.98.75 1.94c7.05 18.97 6.05 36.57 3.96 48a10 10 0 0 1-2.18 4.62 9 9 0 0 1-2.63 2.19 10 10 0 0 1-4.93 1.31M14.61 12.81a8.5 8.5 0 0 0-4.65 1.4 8.5 8.5 0 0 0-3.59 5.33q-.15.8-.17 1.63a2555 2555 0 0 0 .42 57.82 95 95 0 0 0 23.4 60.74l.15.18.13.15a235 235 0 0 0 18.5 18.79 23.4 23.4 0 0 1 7.22 12.58q.5 2.4.5 4.88v14.24a4.5 4.5 0 0 0 2.8 4.18 5 5 0 0 0 1.74.35h38.91a4.54 4.54 0 0 0 4.46-3.72c1.97-10.77 2.91-27.34-3.71-45.18q-.33-.9-.7-1.82a55.8 55.8 0 0 0-27.16-29.11A106 106 0 0 1 48.62 98.7l-.12-.12c-5.5-5-9.6-9.71-12.9-13.5q-1.18-1.39-2.23-2.55l-.06-.07c-2.89-3.25-4.11-4.11-4.64-4.24-.2.16-.71.8-1.15 2.32-1.4 4.92-.72 13.87 3.36 20.77 2.4 4.08 5.3 6.17 8.67 8.62 3.52 2.56 7.52 5.46 11.61 11a51 51 0 0 1 8.4 18.28 2.68 2.68 0 1 1-5.22 1.27 45 45 0 0 0-7.5-16.36c-3.6-4.89-7.08-7.41-10.44-9.85-3.69-2.68-7.17-5.2-10.15-10.25-5.1-8.62-5.69-19.66-3.67-25.66q1.36-4.02 4.11-5.15a5.4 5.4 0 0 1 4.8.4l-.67-4.23L24.7 31.1l-1.8-11.24a8.3 8.3 0 0 0-4.06-5.92 8.6 8.6 0 0 0-4.24-1.15Zm0 0"/></g></g></svg>