<svg xmlns="http://www.w3.org/2000/svg" viewBox="180 289 274 204" preserveAspectRatio="xMidYMid meet"><defs><clipPath id="4271e326f6"><path d="M 212 308 L 310 308 L 310 456 L 212 456 Z M 212 308 " clip-rule="nonzero"/></clipPath><clipPath id="fcd5cbcba9"><path d="M 216.070312 308.253906 L 309.480469 310.488281 L 306 455.945312 L 212.589844 453.707031 Z M 216.070312 308.253906 " clip-rule="nonzero"/></clipPath><clipPath id="3f7c224b04"><path d="M 0.398438 0.160156 L 97.601562 0.160156 L 97.601562 148 L 0.398438 148 Z M 0.398438 0.160156 " clip-rule="nonzero"/></clipPath><clipPath id="41cab0635b"><path d="M 4.070312 0.253906 L 97.480469 2.488281 L 94 147.945312 L 0.589844 145.707031 Z M 4.070312 0.253906 " clip-rule="nonzero"/></clipPath><clipPath id="4d1014b9e4"><rect x="0" width="98" y="0" height="148"/></clipPath><clipPath id="60dd4f0df5"><path d="M 313 296.519531 L 446.582031 296.519531 L 446.582031 472 L 313 472 Z M 313 296.519531 " clip-rule="nonzero"/></clipPath><clipPath id="cab7824bb1"><path d="M 313 466 L 339 466 L 339 484.769531 L 313 484.769531 Z M 313 466 " clip-rule="nonzero"/></clipPath><clipPath id="cec65d6182"><path d="M 187.082031 296.519531 L 321 296.519531 L 321 472 L 187.082031 472 Z M 187.082031 296.519531 " clip-rule="nonzero"/></clipPath><clipPath id="600993de6f"><path d="M 294 466 L 321 466 L 321 484.769531 L 294 484.769531 Z M 294 466 " clip-rule="nonzero"/></clipPath></defs><g clip-path="url(#4271e326f6)"><g clip-path="url(#fcd5cbcba9)"><g transform="matrix(1, 0, 0, 1, 212, 308)"><g clip-path="url(#4d1014b9e4)"><g clip-path="url(#3f7c224b04)"><g clip-path="url(#41cab0635b)"><path fill="#eadcf2" d="M 4.070312 0.253906 L 97.480469 2.488281 L 93.996094 148.078125 L 0.585938 145.84375 Z M 4.070312 0.253906 " fill-opacity="1" fill-rule="nonzero"/></g></g></g></g></g></g><g clip-path="url(#60dd4f0df5)"><path fill="#4b2e59" d="M 321.210938 471.902344 L 316.769531 471.902344 C 314.730469 471.902344 313.0625 470.234375 313.0625 468.199219 L 313.0625 328.328125 C 313.0625 323.453125 315.71875 318.945312 320.039062 316.660156 C 337.632812 307.339844 356.457031 301.167969 375.960938 298.390625 C 391.824219 296.105469 408 296.105469 423.921875 298.390625 C 425.773438 298.636719 427.132812 300.242188 427.132812 302.03125 L 427.132812 314.625 L 442.75 314.625 C 444.785156 314.625 446.453125 316.292969 446.453125 318.328125 L 446.453125 468.136719 C 446.453125 470.171875 444.785156 471.839844 442.75 471.839844 L 321.210938 471.839844 C 321.273438 471.902344 321.273438 471.902344 321.210938 471.902344 Z M 333 464.496094 L 439.046875 464.496094 L 439.046875 322.09375 L 427.132812 322.09375 L 427.132812 446.53125 C 427.132812 447.644531 426.640625 448.753906 425.714844 449.433594 C 424.847656 450.113281 423.675781 450.359375 422.566406 450.113281 C 408.492188 446.71875 386.519531 444.1875 361.890625 451.410156 C 351.703125 454.433594 342.011719 458.816406 333 464.496094 Z M 399.914062 304.132812 C 392.257812 304.132812 384.605469 304.6875 377.011719 305.734375 C 358.308594 308.390625 340.347656 314.253906 323.496094 323.203125 C 321.644531 324.191406 320.472656 326.167969 320.472656 328.328125 L 320.472656 464.125 C 332.382812 455.175781 345.65625 448.507812 359.789062 444.308594 C 383.492188 437.335938 404.789062 438.878906 419.726562 441.902344 L 419.726562 305.367188 C 413.121094 304.5625 406.515625 304.132812 399.914062 304.132812 Z M 399.914062 304.132812 " fill-opacity="1" fill-rule="nonzero"/></g><g clip-path="url(#cab7824bb1)"><path fill="#4b2e59" d="M 323.558594 484.742188 L 316.769531 484.742188 C 314.730469 484.742188 313.0625 483.074219 313.0625 481.035156 C 313.0625 479 314.730469 477.332031 316.769531 477.332031 L 323.558594 477.332031 C 327.753906 477.332031 331.148438 473.9375 331.148438 469.742188 C 331.148438 467.703125 332.816406 466.039062 334.851562 466.039062 C 336.890625 466.039062 338.558594 467.703125 338.558594 469.742188 C 338.617188 478.011719 331.828125 484.742188 323.558594 484.742188 Z M 323.558594 484.742188 " fill-opacity="1" fill-rule="nonzero"/></g><g clip-path="url(#cec65d6182)"><path fill="#4b2e59" d="M 312.324219 471.902344 C 312.261719 471.902344 312.261719 471.902344 312.324219 471.902344 L 190.785156 471.902344 C 188.75 471.902344 187.082031 470.234375 187.082031 468.199219 L 187.082031 318.390625 C 187.082031 316.351562 188.75 314.6875 190.785156 314.6875 L 206.402344 314.6875 L 206.402344 302.09375 C 206.402344 300.242188 207.761719 298.699219 209.613281 298.453125 C 225.597656 296.167969 241.710938 296.167969 257.574219 298.453125 C 277.078125 301.230469 295.90625 307.402344 313.496094 316.722656 C 317.816406 319.007812 320.472656 323.453125 320.472656 328.390625 L 320.472656 468.257812 C 320.472656 470.296875 318.804688 471.964844 316.769531 471.964844 L 312.324219 471.964844 C 312.324219 471.902344 312.324219 471.902344 312.324219 471.902344 Z M 194.488281 464.496094 L 300.535156 464.496094 C 291.523438 458.816406 281.832031 454.433594 271.585938 451.46875 C 246.957031 444.25 224.980469 446.777344 210.910156 450.175781 C 209.796875 450.421875 208.625 450.175781 207.761719 449.496094 C 206.894531 448.816406 206.339844 447.703125 206.339844 446.59375 L 206.339844 322.09375 L 194.488281 322.09375 Z M 239.117188 439.433594 C 249.609375 439.433594 261.339844 440.730469 273.683594 444.371094 C 287.878906 448.507812 301.089844 455.175781 313.003906 464.1875 L 313.003906 328.390625 C 313.003906 326.230469 311.828125 324.316406 309.976562 323.265625 C 293.125 314.316406 275.164062 308.453125 256.460938 305.796875 C 242.328125 303.761719 228.007812 303.636719 213.746094 305.367188 L 213.746094 441.964844 C 220.90625 440.484375 229.550781 439.433594 239.117188 439.433594 Z M 239.117188 439.433594 " fill-opacity="1" fill-rule="nonzero"/></g><g clip-path="url(#600993de6f)"><path fill="#4b2e59" d="M 316.769531 484.742188 L 309.976562 484.742188 C 301.707031 484.742188 294.980469 478.011719 294.980469 469.742188 C 294.980469 467.703125 296.644531 466.039062 298.683594 466.039062 C 300.71875 466.039062 302.386719 467.703125 302.386719 469.742188 C 302.386719 473.9375 305.78125 477.332031 309.976562 477.332031 L 316.769531 477.332031 C 318.804688 477.332031 320.472656 479 320.472656 481.035156 C 320.472656 483.074219 318.804688 484.742188 316.769531 484.742188 Z M 316.769531 484.742188 " fill-opacity="1" fill-rule="nonzero"/></g></svg>