<svg xmlns="http://www.w3.org/2000/svg" viewBox="160 301 287 248"><defs><clipPath id="b"><path d="M16 1h247.4v222.9H16Zm0 0"/></clipPath><clipPath id="a"><path d="M0 0h264v226H0z"/></clipPath></defs><g clip-path="url(#a)" transform="translate(171 312)"><g clip-path="url(#b)"><path fill="#d9e3d1" d="M262.46 56.79c-13.92-71.62-101.2-72.82-122.72-5.86-21.52-66.95-108.8-65.76-122.72 5.86-12.63 64.98 122.72 167.5 122.72 167.5s135.35-102.52 122.72-167.5m0 0"/></g><path fill="#496851" d="M129.26 224.7a4.3 4.3 0 0 1-3.03-1.26l-88.84-88.83-.38-.44-15.77-15.77a67.17 67.17 0 0 1 0-94.9 67.17 67.17 0 0 1 94.89 0l13.16 13.17 13.16-13.16a67.2 67.2 0 0 1 94.89 0 66.7 66.7 0 0 1 19.65 47.44 66.7 66.7 0 0 1-19.65 47.45l-15.77 15.77-.38.44-88.84 88.83a4.3 4.3 0 0 1-3.05 1.26zm-85.42-95.72 85.45 85.45 85.45-85.46q.17-.22.38-.43l16.18-16.18a58.2 58.2 0 0 0 17.15-41.4 58.2 58.2 0 0 0-17.15-41.41 58.6 58.6 0 0 0-82.8 0l-16.2 16.18a4.27 4.27 0 0 1-6.03 0l-16.18-16.18a58.6 58.6 0 0 0-82.81 0 58.6 58.6 0 0 0 0 82.8l16.18 16.19q.21.21.38.44m0 0"/></g></svg>