<svg xmlns="http://www.w3.org/2000/svg" viewBox="164 301 284 188"><defs><clipPath id="a"><path d="M176 313h259.95v164H176Zm0 0"/></clipPath></defs><g clip-path="url(#a)"><path fill="#4b2e59" d="M219.86 313.7q-1.46.3-2.32 1.51l-40.77 55.6a3.6 3.6 0 0 0-.68 2.7 3.7 3.7 0 0 0 1.37 2.4l34.29 27.34-4.98 4.98a16.35 16.35 0 0 0 0 23.05c3.83 3.83 8.94 4.89 13.44 4.52a22 22 0 0 0 4.05-.7 15.38 15.38 0 0 0 20.85 14.72 16.3 16.3 0 0 0 4.75 11.35c5.12 5.11 13.09 5.96 19.23 2.66.64 3 2.1 5.92 4.4 8.22a16.35 16.35 0 0 0 23.05 0l9.27-9.26 9.27 9.26a16.35 16.35 0 0 0 23.05 0 16 16 0 0 0 4.29-8.1 16.5 16.5 0 0 0 19.34-2.78 16.7 16.7 0 0 0 4.87-11.24 15.5 15.5 0 0 0 16.21-3.59 15 15 0 0 0 4.4-10.66c1.49.39 3.03.66 4.64.7 4.4.1 9.25-1.38 12.98-5.1 6.34-6.35 5.45-16.09.23-22.7l-4.52-5.8 33.59-26.87a3.7 3.7 0 0 0 1.3-3.82q-.18-.7-.6-1.28l-40.78-55.6a3.6 3.6 0 0 0-2.36-1.5 3.7 3.7 0 0 0-2.74.58c-7.78 5.23-16.86 6.83-23.86 6.83-7.16 0-11.7-1.64-16.45-3.48-4.75-1.83-9.83-3.93-16.91-3.93a55 55 0 0 0-26.18 6.83c-8.58-4.16-18.4-6.83-25.72-6.83-7.08 0-12.15 2.1-16.9 3.93-4.76 1.84-9.3 3.48-16.46 3.48-7 0-16.07-1.6-23.86-6.83a3.6 3.6 0 0 0-2.43-.58zm60 7.42c4.74 0 12.71 2.07 19.81 5.1l-41.12 48.07a3.6 3.6 0 0 0-.7 3.59c1.29 3.78 4.27 7.01 8.11 9.5a25.7 25.7 0 0 0 13.9 4.17c10.75 0 20.57-6.13 29.2-13.32 8.2-6.84 15.27-14.62 20.62-20.04h26.18l43.43 54.9c3.42 4.34 3.75 9.35.23 12.86a10 10 0 0 1-7.52 3.01 14 14 0 0 1-7.42-2.43 4 4 0 0 0-.58-.46c-.34-.47-.65-.96-1.04-1.39l-18.65-20.74a3.67 3.67 0 0 0-6.29 1.14 3.7 3.7 0 0 0 .73 3.73l18.65 20.85c3.17 3.53 3.4 8.29.23 11.47-3.18 3.17-8.3 3.29-11.24.11l-19.69-21.43a3.7 3.7 0 0 0-4.03-.94 3.7 3.7 0 0 0-2.08 1.95 3.7 3.7 0 0 0-.1 2.86q.26.69.77 1.23l15.98 17.26q.1.24.24.46a15 15 0 0 1 1.73 6.95 8.8 8.8 0 0 1-2.66 6.37c-2.96 2.96-9.68 3.06-12.4.12l-17.37-18.77a3.65 3.65 0 0 0-4.88-.6 3.6 3.6 0 0 0-1.52 3.72q.2 1.08.96 1.87l13.9 15.05c.62 2.73-.47 7.42-2.44 9.39a8.7 8.7 0 0 1-12.5 0l-9.62-9.5a16.3 16.3 0 0 0-2.2-20.16 16.7 16.7 0 0 0-10.43-4.63 16.2 16.2 0 0 0-4.17-15.17 16.9 16.9 0 0 0-13.32-4.75c-1.63.11-3.15.47-4.63.92a15.2 15.2 0 0 0-4.29-9.96c-6-6-15.78-6-21.78 0l-3.47 3.47c-.33-3.67-1.56-7.58-4.64-10.65a16.4 16.4 0 0 0-23.05 0l-1.74 1.74-32.09-25.72 36.96-50.27a52.5 52.5 0 0 0 24.67 6.48c8.35 0 14.25-2.06 19.12-3.94 4.86-1.87 8.6-3.47 14.24-3.47m51.9 0c5.64 0 9.38 1.6 14.25 3.47s10.76 3.94 19.11 3.94c7.13 0 16.17-1.8 24.67-6.48l36.96 50.27-30.82 24.67-35.33-44.83a3.7 3.7 0 0 0-2.9-1.39h-29.65a3.6 3.6 0 0 0-2.66 1.05c-5.7 5.7-12.92 13.9-20.97 20.61s-16.77 11.7-24.56 11.7a19 19 0 0 1-9.96-3c-2.06-1.34-2.97-2.83-3.82-4.18L308 327.72c8.76-5 16.86-6.6 23.75-6.6m-101.6 77.84c2.25 0 4.5.9 6.27 2.67 1.85 1.85 2.64 4.31 2.66 7.3v5.32l-10.3 10.31q-.25.23-.47.47-.45.23-.82.58a17 17 0 0 1-7.87 2.89c-2.92.24-5.45-.46-7.53-2.55a8.73 8.73 0 0 1 0-12.5l11.81-11.82a8.8 8.8 0 0 1 6.26-2.67m30.59 7.42a7.7 7.7 0 0 1 5.56 2.31 7.95 7.95 0 0 1 0 11.35l-20.97 20.97a7.95 7.95 0 0 1-11.35 0 7.8 7.8 0 0 1 0-11.24l21.08-21.08a8 8 0 0 1 5.68-2.31m20.39 13.43c2.76-.2 5.29.54 7.53 2.78 2.99 3 2.99 9.3 0 12.28l-21.08 21.08c-2.96 2.96-9.55 2.96-12.52 0a8.7 8.7 0 0 1-2.54-6.37c-.05-2.3.66-4.75 1.74-6.72q.2-.33.34-.7l17.03-16.9q1.2-1.2 2.09-2.55a14.4 14.4 0 0 1 7.4-2.9m14.82 20.04c2.6.15 5.74 1.1 7.19 2.55a8.7 8.7 0 0 1 0 12.51l-11.82 11.82a8.7 8.7 0 0 1-12.51 0c-1.9-1.91-2.96-6.4-2.43-9.15l17.49-17.5.12-.11q.88-.17 1.96-.12m0 0"/></g></svg>