<svg xmlns="http://www.w3.org/2000/svg" viewBox="179 179 252 302"><defs><clipPath id="a"><path d="M300 192.5h10V229h-10Zm0 0"/></clipPath><clipPath id="b"><path d="M290 458h30v9.75h-30Zm0 0"/></clipPath></defs><path fill="#d0a05e" d="M334.61 406.99v-8.63a55.4 55.4 0 0 1 16.92-40 66.6 66.6 0 0 0 20.86-48.68 67.3 67.3 0 0 0-74.88-66.81c-32.13 3.55-57.7 30.63-59.5 63a67.3 67.3 0 0 0 20.31 52.07c11.03 10.7 17.36 25.42 17.36 40.4V407c0 9.17 7.46 16.63 16.63 16.63h25.66c9.18 0 16.64-7.46 16.64-16.63m-12.24 0a4.4 4.4 0 0 1-4.4 4.4h-25.65a4.4 4.4 0 0 1-4.4-4.4v-8.64c0-18.28-7.68-36.2-21.07-49.2a55 55 0 0 1-16.62-42.6c1.47-26.47 22.37-48.61 48.63-51.51q3.14-.36 6.29-.36c30.33 0 55 24.68 55 55a54.5 54.5 0 0 1-17.06 39.82 67.7 67.7 0 0 0-20.7 48.86V407Zm2.69 22.67h-39.83a4.59 4.59 0 1 0 0 9.18h39.83a4.59 4.59 0 1 0 0-9.18m4.59 19.1a4.6 4.6 0 0 0-4.6-4.6h-39.82a4.59 4.59 0 1 0 0 9.19h39.83a4.6 4.6 0 0 0 4.59-4.6m-132.4-139.19h26.44a4.59 4.59 0 1 0 0-9.17h-26.44a4.58 4.58 0 1 0 0 9.17m220.38-4.59a4.6 4.6 0 0 0-4.59-4.58H386.6a4.58 4.58 0 1 0 0 9.17h26.44a4.6 4.6 0 0 0 4.6-4.59m0 0"/><g clip-path="url(#a)"><path fill="#d0a05e" d="M300.55 197.09v26.44a4.59 4.59 0 0 0 9.18 0V197.1a4.59 4.59 0 1 0-9.18 0m0 0"/></g><path fill="#d0a05e" d="m378.2 225.45-18.7 18.7a4.59 4.59 0 1 0 6.5 6.48l18.69-18.7a4.59 4.59 0 1 0-6.5-6.48m-127.4 133.89a4.6 4.6 0 0 0-6.49 0l-18.7 18.7a4.59 4.59 0 1 0 6.5 6.49l18.7-18.7a4.6 4.6 0 0 0-.01-6.49m-6.49-108.71a4.56 4.56 0 0 0 6.5 0 4.6 4.6 0 0 0 0-6.49l-18.7-18.7a4.59 4.59 0 1 0-6.5 6.5Zm133.9 133.9a4.59 4.59 0 0 0 6.49-6.5l-18.7-18.69a4.59 4.59 0 1 0-6.49 6.5Zm0 0"/><g clip-path="url(#b)"><path fill="#d0a05e" d="M319.69 463.26a4.6 4.6 0 0 0-4.59-4.58h-19.92a4.58 4.58 0 1 0 0 9.17h19.92a4.6 4.6 0 0 0 4.59-4.59m0 0"/></g></svg>