<svg xmlns="http://www.w3.org/2000/svg" viewBox="164 226 232 264"><defs><clipPath id="b"><path d="M.78 3.97h209.13V213.1H.78Zm0 0"/></clipPath><clipPath id="c"><path d="M17.75 189.69H210v55.76H17.75Zm0 0"/></clipPath><clipPath id="a"><path d="M0 0h215v249H0z"/></clipPath></defs><g clip-path="url(#a)" transform="translate(175 233)"><g clip-path="url(#b)"><path fill="#4b2e59" fill-rule="evenodd" d="M163.73 3.88 17.39 150.23l-16.6 63.2 63.19-16.61L210.32 50.48V37.15L177.06 3.88Zm4.02 9.31h5.29l27.98 27.93v5.34l-17.3 17.3-33.27-33.28ZM30.71 150.23 143.8 37.15l33.27 33.26L63.98 183.5Zm-16.85 50.11 11.22-42.47 31.26 31.25Zm0 0"/></g><path fill="#4b2e59" d="M149.42 227.95h-.03zm-65.28.87.04.02zm40.26 15.49h-.02l-.02.04Zm0 0"/><g clip-path="url(#c)"><path fill="#4b2e59" d="M209.59 234.44c.39-.59.27-1.17.1-1.76-.06-.23-.19-.45-.21-.68a4.4 4.4 0 0 0-1.05-2.42c-.3-.37-.56-.81-.54-1.29.04-.78-.53-1.41-.47-2.2-.28-.35-.29-.77-.31-1.2q-.05-.41-.16-.82c-.09-.37-.2-.73-.24-1.1-.07-.74-.51-1.3-.87-1.9a1 1 0 0 0-.81-.44l-.1.64q-.17.04-.3.05-.47.06-.26.29c.34.31.37.76.56 1.13q.2.45.3.94c.08.27-.03.57.2.8.24.27.17.63.29.93.1.28-.22.55-.03.8.19.26.13.56.23.81.19.44-.03.92.19 1.37.2.42.23.91.3 1.38.03.18-.05.38 0 .55.07.21.22.4-.05.57-.05.54.23.93.72 1.02l.42.06c.13.02.18.2.1.34-.05.08-.09.19-.16.23-.44.27-.87.54-1.2.94-.06.07-.18.13-.25.12-.47-.1-.62.35-.97.58-.41-.11-.93-.13-1.28-.43-.68-.56-1.5-.98-1.94-1.79-.12-.2-.19-.44-.35-.6q-.38-.36-.35-.88a.8.8 0 0 0-.35-.73c-.24-.17-.38-.4-.5-.66-.09-.16-.2-.34-.35-.43-.3-.17-.51-.4-.76-.62-.41-.38-.92-.41-1.44-.29-.15.03-.27.37-.16.47q.31.3.6.54l-.14.6q-.1.36-.37.14c-.15-.11-.33-.22-.42-.37a5 5 0 0 0-1.5-1.65c-.23-.16-.37-.43-.53-.66-.41-.58-1.02-.96-1.5-1.45-.88-.32-1.5-.97-2.19-1.53.02-.27.2-.58-.24-.68-.25-.05-.41-.23-.5-.45a1.6 1.6 0 0 0-1.29-.97l.02-.03-.13-.03.1.05-.58.29c-.06.02-.18-.03-.22-.08s-.07-.2-.03-.26q.1-.13.23-.24l.13.06-.09-.1-.05.04.01-.26q-.3 0-.59.03-.08.2-.29.19c-.33-.04-.65-.13-.97-.17q-.73-.09-1.27-.58-.52-.46-1.07-.91c-.37-.29-.73-.55-.98-.99a2.5 2.5 0 0 0-1.16-1l-.64-.3c-.47-.26-.56-.46-.6-1.32q.54.15 1.1.26c.13.03.28.08.4.06.13-.03.29-.1.35-.21a.5.5 0 0 0 .03-.39 1 1 0 0 0-.28-.48c-.63-.57-1.18-1.21-1.87-1.71a1.4 1.4 0 0 0-1.69.07q-.1.1-.1.26c-.02.17-.02.34-.03.6-.25-.2-.4-.39-.6-.48-.2-.1-.46-.11-.68-.17a1.3 1.3 0 0 1-.91-.83c-.27-.79-.84-1.2-1.53-1.54-.34-.16-.7-.32-.97-.58-.49-.47-1.09-.73-1.67-1.02a2 2 0 0 1-.85-.7q-.52-.87-1.46-1.27c-.42-.2-.9-.39-1.21-.7-.58-.59-1.37-.59-2.02-.93-.58.04-1.1-.2-1.66-.4q-.02.23-.06.41c-.03.16-.18.24-.3.18q-.28-.1-.5-.26a2.7 2.7 0 0 0-1.74-.5l-.54.02-.04-.38q.02-.3-.19-.52c-.34-.33-.68-.67-1.15-.77a1.5 1.5 0 0 1-.82-.5c-.18-.2-.4-.42-.74-.33-.5-.19-1.05.07-1.53-.1-.48-.16-.92-.44-1.44-.55-.8-.18-1.5-.55-1.99-1.24q-.12-.17-.28-.3l-.55.07-.13-.26q-.01-.14 0-.28c0-.16 0-.15-.4-.42-.16-.1-.26-.32-.42-.36-.44-.11-.22-.44-.27-.67.11.02.23.07.35.06.06 0 .11-.1.16-.16-.05-.04-.12-.13-.16-.12q-.18.04-.35.13c-.1-.1-.17-.27-.27-.28a2.2 2.2 0 0 1-1.37-.64l-.12-.07c-.4-.27-.8-.5-1.28-.13-.12.1-.37.09-.55.04q-.55-.12-1.06-.36-1.1-.61-2.2-1.28c-.43-.27-.83-.57-1.3-.9l-.53.58c-.06.05-.2.08-.26.04-.2-.11-.42-.23-.57-.4-.3-.35-.68-.5-1.1-.59q-1.46-.3-2.84-.82a3 3 0 0 0-.68-.19c-1.2-.16-2.23-.71-3.3-1.22-.29-.14-.58-.26-.82-.52-.22-.24-.52-.39-.8-.57-.44-.29-.92-.47-1.46-.3a1.2 1.2 0 0 1-.83-.05c-.24-.1-.46-.07-.7-.02q-.41.09-.82.13l-2.29-1.12c-.33-.16-.76-.1-1.04-.41l-.83-.03c-.65-.02-1.31.06-1.93-.25-.16-.08-.38-.05-.56-.04-.33.03-.66.1-.98.1-.37 0-.75-.1-1.12-.12h-.7q-.36 0-.62.28-.57.52-1.31.25c-.4-.14-.84-.06-1.25-.04-.39.32-.8.18-1.2.07-.26-.07-.42.17-.32.44l.24.53c-.29.44-.62.82-1.15.98a1 1 0 0 0-.36.22l-.9.9a3 3 0 0 0-.74 1.35q-.24 1.03-.37 2.08c-.04.28 0 .57.25.78q.15.12.2.34c.03.22.07.48.2.66.41.58.67 1.23.94 1.89.1.25.25.53.45.7q.47.35.57.92c.05.32.2.61.19.95-.02.4.16.73.4 1.02.13.14.33.25.4.4q.22.59.84.64c.13.02.29.1.35.19q.22.33.58.3.58.01.78.5c.12.27.22.54.53.62.47.58 1.15.96 1.6 1.58.21.3.54.52.81.78.5.47 1.04.79 1.77.71.23-.03.48.04.7.12.2.1.42.2.53.43a4.6 4.6 0 0 0 1.64 1.71c.9.6 1.56 1.47 2.42 2.13.16.12.2.37.5.4s.36.43.6.55c.29.14.63.17.93.28.13.03.23.15.34.23-.04.22-.23.5.07.62.45.16.62.54.82.9q.15.05.27.04c.3-.06.45.07.54.32.06.17.11.33.32.42.53.2 1.03.46 1.6.52.11 0 .2.1.3.18l-.01.03h.05l-.03-.04q.27.07.51.19c.65.36 1.23.87 1.98 1.05.52.4 1.15.59 1.64 1.07.46.45 1 .82 1.72.83.33.01.64.23.8.53.15.26.38.41.63.55q1.12.6 2.1 1.38c.4.32.85.57 1.23.93.42.4 1.07.32 1.58.57q.19.07.4.12c.04.17.03.33.24.45.39.22.84.45.66 1.05 0 .01.19.13.22.1.2-.12.35-.32.59-.32l.45.87c.25.07.47.17.59.42l-.59-.4c-.29.18-.25.46-.2.73q.09.29.37.4l.64.29c.27.12.41.04.58-.35l.53.19c.23.09.4.22.38.51 0 .03.13.11.2.1q.23-.01.33.2c.13.24.3.47.37.74.1.38.53.37.67.67q.13.25.19.52c0 .04-.13.17-.17.16-.68-.2-1.37-.33-1.96-.75-.3-.22-.68-.31-.82-.72 0-.03-.16-.03-.25-.03l-.13.04c-.1 0-.22.01-.27-.04-.27-.26-.63-.35-.93-.56-.01-.01 0-.09.03-.13.08-.17-.02-.28-.17-.3-.22-.03-.5.04-.69-.05-.62-.3-1.32-.47-1.82-1.02a2 2 0 0 0-1.18-.72c-.12-.02-.24-.15-.31-.26a1.4 1.4 0 0 0-.92-.6 1 1 0 0 1-.49-.26 3 3 0 0 0-1.93-1.07 5 5 0 0 1-1.56-.6c-.66-.36-1.27-.82-1.94-1.15-.4-.2-.7-.45-1.02-.73-.22-.18-.39-.44-.61-.57-.27-.15-.63-.15-.94-.25-.22-.07-.42-.2-.63-.29a.6.6 0 0 0-.54 0c-.47.23-.92.02-1.38-.03-.4-.04-.68-.3-.97-.54q-.16-.13.04-.22l.79.22c.23-.18.46-.35.77-.2.07.04.2.03.27-.01q.13-.07.18-.2c0-.06-.07-.15-.12-.22-.03-.03-.1-.07-.12-.06-.36.14-.72.03-1.08.02-.14 0-.35.03-.4-.05-.32-.44-.93-.44-1.24-.86-.06-.08.05-.34 0-.37-.5-.3-.97-.8-1.66-.34-.21.13-.54.1-.82.1a.6.6 0 0 1-.38-.13 6 6 0 0 1-.62-.57c-.61-.66-1.64-1.5-2.3-1.84q-.94-.47-1.9-.91c-.25-.12-.57 0-.78-.24 0-.48-.03-.59-.34-.64a2.3 2.3 0 0 1-1.14-.5 1.5 1.5 0 0 0-.91-.32 6.5 6.5 0 0 1-2.72-.66q-.31-.14-.66-.2a.6.6 0 0 0-.4.07 1.1 1.1 0 0 1-1.32-.08 2 2 0 0 0-1.02-.4c-.42-.05-.83-.18-1.24-.27-.46-.09-.94-.04-1.4-.23a1 1 0 0 0-.55-.05c-.73.07-1.36-.33-2.05-.4-.58-.36-1.24-.42-1.74-.48l-.75-.78.02-.04h-.05l.03.04c-.21-.07-.49-.06-.63-.27-.25-.39-.62-.55-1.05-.64a2 2 0 0 1-.66-.24 14 14 0 0 0-3.25-1.35c-.13-.04-.27-.12-.4-.1q-1.05.15-2.08.35c-.2.04-.35.37-.28.57l.21.68q.42 1.22.09 2.46l-.68-.01q-.36.01-.64.25a.4.4 0 0 0-.13.5q.06.14.13.25c.54.6.75 1.4 1.25 2.01.07.37.35.54.64.71a8 8 0 0 1 2.64 2.5l1.15 1.6c.22.3.48.58.66.9.19.36-.02.75 0 1.11 0 .38.1.75.21 1.1.07.22.2.45.38.6.6.5 1.16 1.09 1.93 1.4q.44.2.86.46c.48.3 1.01.53 1.33 1.03.11.17.28.23.46.3l.76.37c.1.5.32.87.82 1.07.44.18.84.44 1.24.68.42.25.76.54.78 1.1 0 .27.1.59.26.8.6.78 1.06 1.67 2.01 2.12.42.2.8.5 1.32.4.29-.07.55.08.8.2q.89.44 1.52 1.2l-.06.05.09-.02-.02-.01-.01-.02c.06.07.16.13.17.21q.21.97.8 1.78.3.47.56.97c-.1.4.28.57.4.83l-.54.75a3 3 0 0 0-1.25.12c-.43.18-.8.15-1.2-.15-.16-.12-.44-.13-.67-.12q-.34.04-.67-.13c-.32-.17-.7-.28-1.04-.43a2.5 2.5 0 0 0-1.1-.2q-.43.03-.85.09c-.4.04-.79 0-.96-.41-.19-.47-.9-.33-.98-.9q-.27-.12-.53-.2c-.44-.06-.63-.57-1.1-.6-.1-.01-.2-.16-.32-.24a2.5 2.5 0 0 0-2.37-.48c-.34.1-.63.12-.96.03-.18-.05-.38-.11-.55-.07-.44.12-.83-.1-1.25-.11-.48-.03-.9-.23-1.34-.39-.57-.2-1.13-.47-1.77-.43-.22 0-.46-.11-.66-.23a4.5 4.5 0 0 0-1.87-.6c-.23-.02-.45-.12-.68-.15q-.9-.14-1.81-.25c-.48.2-.93.03-1.37-.15q-.23-.09-.13-.31c.06-.13.2-.27.08-.38-.07-.07-.3-.07-.38 0a.9.9 0 0 1-1.17.06c-.39-.3-.81-.2-1.19-.34-.45-.17-.83-.06-1.23.1-.43.16-.82.15-1.12-.28-.14-.2-.4-.22-.63-.3-.27-.07-.58-.12-.78-.29a3.6 3.6 0 0 0-1.94-.8c-.76-.11-1.2-.75-1.46-1.67q-.01-.12.07-.26c-.5-.2-1-.5-1.56-.14-.06.05-.18.05-.27.03-.46-.12-.93-.06-1.4-.09-.38-.02-.86 0-1.09-.48a.3.3 0 0 0-.22-.15c-.5-.04-1.01-.15-1.48.17.05.38.02.75.25 1.08.37.07.68-.22 1.09-.1.4.1.8.07 1.18.35.32.24.82.13 1.12.47-.32.05-.64.36-1 .05-.04-.04-.19 0-.26.05-.36.28-.7.35-1.15.15-.73-.3-1.5-.48-2.25-.71 0-.14.1-.29-.08-.36l-.27-.03c-.77.17-1.49.13-2.2-.27-.23-.13-.55-.09-.8-.2-.24-.13-.45-.33-.73-.42-.25-.08-.49-.27-.73-.4l-.58.06q-.85-.01-1.6.43-.65.36-1.37.04l-.5-.2-.05-.16c-.1-.45-.16-.5-.53-.48-.05 0-.09.04-.14.03-.13 0-.32.04-.4-.03-.35-.37-.85-.32-1.28-.47a2.2 2.2 0 0 0-1.9.15c-.2.1-.46.16-.68.15-.39-.04-.71.19-1.1.16-.37-.03-.75.07-1.19.13-.47-.4-1.1-.53-1.77-.63-.51-.08-1.02 0-1.53-.1-.7-.16-1.4-.28-2.1-.24q-.64.03-.88-.56-.64-.03-1.28-.1a9 9 0 0 0-2.53.14c-.35.05-.61.16-.8.5-.06.13-.3.21-.46.27q-1.07.3-2.07-.17c-.44-.21-.86-.39-1.34-.19-.35-.08-.73-.04-1.06-.2-.15-.59-.23-.7-.6-.58-.38.12-.73.18-1.06-.1-.52-.4-1.18-.26-1.75-.45-.47.13-1.03-.03-1.4.48-.12.16-.42.2-.65.26q-.27.05-.5.07-.07.2-.08.32c0 .16-.01.28-.19.31s-.4 0-.53.1c-.32.24-.63.18-.94.05-.25-.1-.48-.28-.72-.42-.3.12-.6.31-.91.33-.44.03-.83.15-1.23.26s-.86.23-1.26.16c-.77-.14-1.62.08-2.32-.45a.4.4 0 0 0-.27-.06c-.74.07-1.5-.09-2.23.2q-.53.2-1.08.3c-.56.12-1.1.36-1.46.81-.25.32-.49.5-.9.59q-.82.2-1.57.57-.79.38-1.62.52a6.7 6.7 0 0 0-3.22 1.68c-.29.24-.52.54-.5.97 0 .12-.13.24-.22.41.23.07.45.17.67.19.28.02.56-.06.83-.04.54.03.9-.22 1.17-.65.04-.05.16-.06.26-.09l.16.37q.12.2.34.18c.14-.04.31-.16.4-.11.51.25 1.01.04 1.52.02.8-.05 1.56-.34 2.33-.57.17-.05.32-.2.45-.31.06-.05.13-.19.1-.21-.13-.18-.2-.3.06-.43.52-.22.97-.57 1.55-.67.41-.07.8-.3 1.19-.44.22-.08.47-.23.67-.19.7.16 1.4-.06 2.09-.04q.99 0 1.98-.03c.56-.02 1.13-.03 1.65-.31.12-.07.28-.1.4-.09.78.16 1.63.1 2.26.72.14.15.34.12.53.05.12-.04.3-.09.39-.03.36.25.74.03 1.1.07q.13-.17.23-.35c.28-.6.69-.97 1.4-.95.43.01.86-.08 1.26-.17a1.9 1.9 0 0 1 1.63.23c.26.18.5.15.8.11.59-.06 1.21-.12 1.8.29l-.52.98c.2.24.43.02.64.08l.68.16c.4.1.79.33 1.23.16.12-.04.28 0 .42.02.37.02.77-.01 1.07-.13.28-.1.54-.15.81.01.24.15.47.23.8.17.3-.06.6-.04.92-.15.35-.12.75-.08 1.12-.1l.14-.06c.03-.02.1-.08.09-.1-.03-.07-.07-.17-.13-.21-.34-.23-.36-.27-.08-.43.29-.16.37-.4.44-.68.01-.05.15-.12.23-.1q.2.03.38.14.54.4 1.18.43c.56.03 1.13-.05 1.6.37.05.04.19-.01.28-.04.35-.08.63.19.94.22.37.05.74.04 1.12.08q.15 0 .25.1c.32.29.69.27 1.07.2l.28-.02c.24 0 .46.24.41.47q-.06.35-.35.36c-.24 0-.48-.04-.7 0-.42.06-.82.18-1.09.58.17.18.4.4.6.35.42-.1.72.07 1.06.24.13.06.3.08.42.05q.75-.2 1.48-.46a.27.27 0 0 0 .16-.35q-.08-.13-.12-.25c-.06-.18.07-.41.24-.4.24 0 .48.1.7.06q.9-.24 1.8.05.32.1.67-.1c.45-.26.95-.44 1.48-.27q1.66.53 3.26.38c.76.44 1.44.86 2.14 1.24q.5.27 1.05.4 1.1.24 2.23.39c.32.04.67.03.97-.06a5.3 5.3 0 0 1 2.78-.05q.41.1.84.07 1.1-.06 2 .57c.29.22.6.23.94.2q.2.21.41.39c1.16 1.01 1.59 1.14 3.2 1.04l.52-.07c.45.22.77.61 1.28.69l.58-.34c.38.08.78.13 1.04.43.38.44.89.5 1.42.5.23-.01.46-.07.7-.09.28-.02.57-.09.84-.03.5.1 1.01.03 1.51.12.28.04.55.13.83.18.32.07.65.18.97.16a9 9 0 0 1 4.14.72c.3.13.63.17.95.23.65.14 1.3.23 1.91.53.2.1.45.11.68.16.3.08.46.24.54.56.17.69.55 1.2 1.35 1.2.18 0 .36.1.55.14.74.14 1.48.32 2.23.39.94.07 1.88.14 2.8-.23.3-.12.67-.15.96.04.46.28.92.48 1.46.44q1.62.52 3.26.96c.16.04.24.27.18.47-.2.66-.2.64.37.94.3.15.58.27.92.12.57.15 1.22.08 1.68.6.13.15.43.15.65.21.46-.29.9.07 1.35.04l.05-.09c.04-.08.05-.2.11-.24q.1-.03.26.02.06.02.12.08c.17.1.37.41.45-.07q.26-.11.51-.16c.27-.05.56.04.82-.12l.71-.38c.06-.3-.17-.54-.19-.78q-.08-.63-.36-1.16-.33-.6-.87-1.08c-.37-.34-.66-.78-.98-1.17.14-.53-.38-.7-.57-1.04q.25.04.5.04c.04 0 .09-.1.1-.17.01-.02-.05-.08-.08-.09l-.52-.02c.07-.32-.12-.54-.35-.71-.14-.11-.36-.07-.46-.28a.8.8 0 0 0-.54-.41c-.32-.08-.64-.2-.96-.24q-.51-.08-.85-.46c-.38-.41-.83-.77-.93-1.38a1 1 0 0 0-.28-.48c-.37-.43-.84-.79-1.06-1.32-.25-.59-.91-.66-1.26-1.1-.16-.22-.37-.23-.58-.32-.29-.12-.52-.38-.78-.58-.04-.43-.4-.61-.7-.84-.2-.63-.77-.92-1.26-1.27-.19-.15-.44-.23-.57-.42-.54-.73-1.28-.86-2.15-.8q.01-.35-.04-.7c-.02-.13-.09-.3-.18-.36-.73-.43-1.3-1.08-2.08-1.45-.46-.2-.9-.5-1.36-.7-.3-.13-.53-.4-.82-.55s-.65-.1-.9-.33c-.16-.25-.4-.48-.43-.73-.05-.28-.02-.57-.19-.8-.22-.3-.08-.65-.13-.97q-.04-.43-.24-.78c-.16-.29-.37-.55-.54-.83-.23-.4-.73-.6-.77-1.12-.5-.35-.77-.95-1.4-1.16-.34-.12-.64-.39-.96-.59q-.61-.4-1-1c-.3-.52-.54-1.1-.8-1.65v-.14c-.02-.36.16-.78.61-.8.7 0 1.4-.09 2.1.14.27.1.55.1.83.16.15-.25.44-.26.67-.35.16-.07.22-.35.08-.46q-.2-.16-.44-.3c.35-.26.76-.26 1.16-.2.09 0 .15.2.26.37q.4.07.89.18c.38.1.67.31.76.74.06.27.04.57.25.77.45.2.92.32 1.3.58.5.34 1.04.42 1.61.38.24-.02.44-.03.66.13.24.17.58.17.8-.02q.93-.78 1.94-.1c.14.09.34.1.5.15q0 .21-.03.32c-.05.13-.1.27.01.38.36.33.74.59 1.26.36.08-.03.2-.07.26-.03.4.3.93.18 1.34.41a3 3 0 0 0 1.77.35q.34 0 .69.09c.23.05.45.19.67.19.46 0 .85.18 1.16.45.46.4.96.54 1.54.6q1.22.1 2.13.98c.5.5 1.12.82 1.66 1.28q-.03.06-.1.1c-.35.2-.68-.34-1.06-.04q-.27-.09-.5-.23c-.5-.44-1.1-.44-1.71-.36-.04 0-.1.06-.1.09 0 .08.03.21.08.23.39.16.76.34 1.08.63q.44.41 1.05.3c.3-.04.55.07.8.22l-.01.03-.01.02h.07l-.04-.04q.06-.08.14-.13c.2-.13.25-.12.44.13l-.06.04h.08l-.02-.04c.18.06.37.18.53.15.29-.06.54.03.8.07.31.05.65-.03.97-.06q.46 0 .73.35.23.32.43.68c.36.19.69.44 1.14.43.22 0 .46.13.63.27q1.59 1.3 3.3 2.41c.5.6 1.18.74 1.9.77l1 .05c.13.01.22.19.14.32l-.29.44c.18.28.3.54.5.75.15.16.38.25.57.37.45-.15.82.09 1.2.26q.07.02.14-.03l.1-.1q.03-.07.02-.13c-.09-.3-.44-.34-.6-.58-.03-.07-.07-.19-.04-.24.03-.06.18-.11.23-.08.33.18.68.35.95.6q.36.35.82.5l.8.3c.14.06.18.2.28.28.36.34.7.72 1.3.58.25-.06.43.17.61.32.03.02 0 .18-.04.23l-.44.35.87.92.58.04c.34.01.64.11.85.41q.12.18.3.3l1.88.98q.59.31 1.24.16c.29-.07.55 0 .82.01.76.02 1.22.7 1.92.79l1.09.9c-.11.4.28.54.42.81q.22.46.48.87c.22.3.45.61.85.72.14.03.2.16.23.3s.07.3.16.38c.15.16.34.08.52.01.08-.04.2-.06.27-.02.34.16.7.29.97.53.74.66 1.38 1.42 2.24 1.93.14.09.25.27.34.44.41.78.93 1.4 1.86 1.58.35.08.5.42.72.66.26.27.46.6.9.62.07 0 .2.08.22.15.18.58.65.75 1.19.84a2 2 0 0 1 1 .48c.18.16.4.27.56.44.18.2.28.45.61.52.26.05.1.44.32.58l.32.22c0 .45 0 .48.25.53a3 3 0 0 0 .55.07c.26.01.36.25.55.37.03-.31.44-.51.23-.9-.03-.05.13-.27.23-.3.22-.06.46-.05.69-.07.27-.01.43-.19.52-.4.06-.13.04-.3.1-.42q.19-.51-.16-.92c-.73-.93-.75-1.08-1.14-2.07-.48-1.26-.8-2.62-1.86-3.58-.25-.22-.12-.73-.53-.78s-.58-.46-.94-.57c-.19-.06-.37-.1-.4-.34 0-.06-.14-.15-.2-.14-.2.03-.36.04-.54-.06q-.47-.32-.98-.55c-.39-.16-.8-.25-1.21-.37q-.15-.02-.28-.06c-.3-.14-.59-.3-.75-.62-.1-.2-.26-.4-.31-.62-.09-.33-.36-.56-.47-.85-.13-.34-.38-.5-.64-.7-.28-.2-.48-.42-.44-.81q.02-.15-.07-.27c-.36-.36-.68-.77-1.2-.96-.84-.3-1.68-.6-2.43-1.07-.48-.08-.72-.38-.86-.83-.04-.15-.24-.29-.4-.37-.2-.11-.43-.16-.64-.26-.22-.09-.48-.14-.62-.3-.38-.45-.9-.68-1.37-1-.59-.38-1.18-.75-1.54-1.4q-.19-.3-.46-.52c-.18-.15-.33-.27-.36-.55-.02-.27-.39-.2-.54-.36a7 7 0 0 1-.55-.65c-.2-.27-.43-.46-.8-.5-.6-.08-.93-.59-1.39-.89-.08-.48-.43-.71-.84-.87q-.3-.1-.33-.4c-.12-.93-1.03-.98-1.6-1.41-.03-.04-.17.04-.25.08l-.34.2q-.23-.08-.4-.18c-.43-.26-1-.3-1.26-.84-.06-.14-.3-.21-.48-.26a1.4 1.4 0 0 1-.7-.44 2 2 0 0 0-.96-.56 6 6 0 0 0-1.64-.38 3.4 3.4 0 0 1-2.03-.89c-.22-.17-.4-.37-.67-.51-.44-.24-.92-.46-1.08-1.01-.72-.51-1.24-1.26-2.05-1.69-.57-.3-.57-.35-1-1.06h.02l-.36-.43c.28-.3.09-.44-.18-.63-.4-.3-.74-.7-1.34-.6-.23.03-.43-.18-.54-.4a1 1 0 0 0-.65-.5c-.31-.08-.61-.24-.93-.28a1.6 1.6 0 0 1-.9-.34q-.22-.18-.5-.25a3.3 3.3 0 0 1-1.87-1.6q-.21-.36-.48-.7c-.16-.23-.3-.5-.51-.67-.7-.56-1.28-1.25-1.96-1.83-.14-.13-.32-.22-.36-.41a1 1 0 0 0-.36-.57q-.44-.36-.8-.8a4 4 0 0 0-.71-.68c-.35-.25-.66-.55-1.01-.78-.37-.24-.6-.6-.84-.94-.15-.2-.25-.42-.2-.66.16-.81-.43-1.55-.24-2.37.03-.1-.1-.26-.16-.38q-.2-.38-.37-.77c-.06-.12-.11-.28-.07-.4.1-.36.07-.76.37-1.04.37-.34.5-.78.6-1.25.03-.18.13-.34.19-.48q.43 0 .76-.04c.13-.02.32-.05.38-.14.32-.42.77-.24 1.17-.32.25.27.45.59.82.74.17.07.34.2.52.2.94.02 1.88.05 2.82.01.46-.02.91-.26 1.37-.28s.93.1 1.4.14h.14q.77.12 1.54.02c.54-.06.99.3 1.5.35q.41.06.8.26a4 4 0 0 0 1.49.43q.28.01.52.18.48.3.94.62.16.1.06.22l-.58.43q.16.16.3.27l.48.3q.13.09.26.1c.49-.07.9.34 1.37.23.36-.09.7-.28 1.04-.43l.26-.1c.75-.33 1.25-.36 1.85 0 .4.23.85.39 1.2.74.21.23.54.36.84.49q.58.28 1.1.62c.56.34 1.1.73 1.77.86.18.04.34.16.51.23.64.25 1.18.8 1.95.7q.73.29 1.35.77.09.09.13.23.08.4.46.49c.48.12.88.51 1.41.42l.12-.34c.25-.14.48-.27.75-.03.35.3.86.4 1.08.86.78.6 1.51 1.27 2.42 1.69.47.21.92.45 1.25.88.1.13.31.24.48.26a4 4 0 0 1 2.03.93c.14.1.3.26.46.3.49.07.89.3 1.26.6q.25.16.54.1c.14-.01.29-.07.4-.03q.67.22 1.32.5c.25.09.36.35.35.69 0 .15-.09.25-.16.36-.07.13.06.26.24.22q.25-.08.49-.2c.02.39.03.4-.18.43l-.7.11-.2.14c.06.12.11.27.21.33.88.5 1.82.41 2.75.27.09-.01.16-.11.24-.15.44-.19.88-.24 1.33-.03.17.08.34.18.52.2.5.05.88.29 1.24.62a8 8 0 0 0 2.24 1.42c.78.57 1.44.8 2.28.8q.21 0 .41.02c.25.03.43.13.5.41.05.23.19.43.24.65.02.11-.14.29 0 .37.37.22.64.53.9.87.38.49 1.03.66 1.4 1.17a1 1 0 0 0 .34.24c.26.11.53.27.8.28.68.03 1.28.33 1.88.43q.39.41.76.72c.22.17.5.27.72.43.27.2.42.52.75.63.65.2.99.7 1.25 1.28.08.16.16.4.3.46.33.13.46.42.61.69.11.2.1.48.24.64.18.2.47.3.7.48q.3.28.6.59c.14.15.33.16.51.15q.18 0 .11-.2-.08-.24.17-.27c.46-.06.83.13 1.17.41.15.5.63.64 1 .92.14.11.23.35.38.4.62.18 1.01.68 1.49 1.04.23.17.44.35.71.45q.73.28 1.28.85c.42.42.87.86 1.55.89.23.01.43.16.58.36.17.23.39.41.57.63.27.33.63.62.77 1 .21.55.61.94.94 1.39.34.48 1 .5 1.34.98.37.07.74-.02 1.1.03.34.04.66-.07.98-.1.22-.01.45.13.67.2 0 .32.22.5.44.69.56.5 1.14 1 1.64 1.55.82.92 1.75 1.73 2.54 2.67a3 3 0 0 0 1.9 1.14c.36.03.6.21.85.43.1.1.24.14.38.21q.66-.25 1.3-.54.34-.15.45-.53c.05-.17.18-.38.13-.52-.13-.34.17-.53.18-.8.02-.32-.06-.66-.01-.98.03-.33.1-.68.27-.94M81.94 230l-.04-.02q.1 0 .14.04c.06.08 0 .1-.1-.02m40.63 10.17c0-.06.16-.16.2-.14q.6.22.9.8c-.43.16-.75-.02-1.03-.29-.07-.07-.08-.25-.07-.37m-2.36-.66q.33.2.26.59-.01.06-.08.1c-.02.03-.08.03-.1.02-.34-.28-.72-.5-.94-.9q.46-.04.86.19m-6.41-9.13.11.21-.18.08-.03-.22c0-.02.06-.05.1-.07m-1-.37q.08.02.11.05c.07.09-.09.28-.2.26-.04-.01-.08-.1-.07-.11zm-13.92-17.88c-.2.23-.4 0-.6-.01l.57-.19c.02 0 .07.06.08.09q0 .06-.05.11m3.5-1.86c-.06.07-.16.14-.16.22 0 .16.11.38-.14.45-.1.02-.24-.06-.37-.1q-.27-.08-.5-.2c-.1-.08-.2-.24-.19-.34.03-.1.18-.19.29-.26.28-.18.63.1.92-.12.03-.02.2.05.22.1.02.07-.04.17-.07.25m1 1.3c-.03-.02-.05-.1-.04-.11.06-.1.16-.1.21 0q.08.15.11.3-.16-.09-.28-.19m7.71 2.38-.04-.07.12-.02.03.08zm15.82 6.4q-.08.01-.1-.04-.1-.16.08-.2.08 0 .11.05.09.14-.1.2m41.15 26.37.1.05c-.02.06-.04.15-.08.16q-.1.02-.2 0-.02-.19.18-.2m-2.53-5.03q.1.05.16.17l-.12.04-.11-.05-.15-.16zm-5.24-4.66c.19.07.35.16.51.18 1 .12 1.75.68 2.5 1.26.23.18.27.54.54.74.26.19.52.43.4.83.17.29.37.56.48.86.12.31.52.42.55.79q-.03.19-.1.37c-.05.13-.19.25-.32.18-.46-.23-.92-.46-1.25-.88q-.55-.74-1.18-1.4-.66-.64-1.36-1.23l-.21-.19c-.57-.35-.65-.88-.56-1.5m-.8-.69c.02-.03.09-.06.11-.05q.13.05.22.13.03.06.04.13l-.08.1c-.17.03-.36-.17-.28-.3m-.5.38q-.06.03-.08.02-.05-.03-.05-.1.05-.16.15-.03 0 .06-.02.11m-.42-.92c.14-.09.27 0 .37.11l.04.13-.07.1c-.17.12-.42.06-.45-.11-.01-.07.04-.19.1-.23m-17.07-14.79c.14-.17.25-.41.53-.35.32.06.62.19.67.58q.03.13.1.26c.04.16-.07.3-.2.25l-.66-.2q-.3-.1-.68-.17zm-10.61-8.32q.16-.05.35-.05.02.3-.3.3c-.03 0-.1-.03-.1-.05 0-.07.01-.2.05-.2m-1.41-1.24c.11-.1.26-.1.3.05q.09.26.14.51c-.08.09-.13.19-.2.2-.13.04-.28.02-.35-.13-.1-.23-.1-.44.1-.63m-.62.25.05.1-.04.1-.1-.15zm-.68-.82c.05.04.08.13.1.18h-.22c-.02 0-.06-.07-.05-.1q.02-.16.17-.08m-11.68-8c.03-.06-.07-.18-.08-.26q0-.17.19-.16c.25.01.44.16.58.34.27.38.5.78.78 1.16.14.19.33.31.6.27q.2 0 .4.1c.12.05.26.16.2.3-.05.12-.22.28-.28.26-.32-.13-.68 0-.95-.15-.48-.27-1-.54-1.28-1.06-.37-.2-.33-.48-.16-.8m-.52-5.26c.1.3-.05.55-.23.76-.1.1-.23.18-.37.09-.19-.13-.4-.26-.53-.44q-.5-.67.15-1.22.25-.2.57-.39.22.62.4 1.2m19.3-1.75-.19-.15q.07-.03.12-.03l.16.14q-.06.04-.1.04m13.63 5.37c-.03 0-.1-.04-.1-.06q.02-.16.17-.1.08.06.13.16zm.89-2.4q-.19.02-.07-.13.04-.04.1-.06l.04.11c-.02.03-.05.09-.07.09m.82.56c-.05-.01-.08-.13-.1-.2q0-.08.06-.11.13-.04.24 0 .16.1.3.24c-.18.19-.35.11-.5.07m11.81 7.5q-.25-.13-.52-.24c-.4-.16-.5-.53-.6-.9 0-.02.03-.09.05-.1.04-.01.11 0 .13.02.15.2.26.35.5.07.13-.15.35-.1.49.09.25.23.23.56.24.86 0 .15-.17.25-.29.2m7.19 4.79q.06-.05.13-.06c.06 0 .01.07-.13.06m10.46 3.98q-.15-.12-.26-.29c-.01-.01.05-.07.09-.13q.17.09.33.2.06.07.1.19c-.09 0-.2.06-.26.03M208 233.84c-.09.07-.27.05-.4.03-.06 0-.1-.13-.14-.2q-.02-.05.01-.23c.01-.06.02-.2.05-.33.05-.28.32-.42.66-.34.07.02.18.13.17.17-.09.31-.09.67-.35.9m0 0"/></g><path fill="#4b2e59" d="M205 220.58v.05h.03v-.04zm-.09-1.85c-.27-.8-.69-1.53-1.13-2.25-.05-.06-.16-.1-.24-.12a.7.7 0 0 1-.43-.34c-.09-.16-.18-.34-.33-.43-.67-.41-.86-1.1-1.08-1.76.08-.56-.49-.88-.5-1.4 0-.08-.1-.17-.16-.23-.24-.21-.48-.45-.75-.61a4 4 0 0 1-1.32-1.42c-.18-.29-.34-.54-.68-.66-.17-.06-.28-.26-.25-.47q.05-.3-.14-.52c-.42-.48-.76-1.06-1.26-1.47-.1-.07-.26-.06-.39-.09-.07.27-.28.45-.44.66-.18.23-.1.62.13.75q.18.12.38.18c.47.13.67.49.77.92l.06.42q.04.31.3.46c.53.27.81.78 1.05 1.26.17.35.36.64.66.87l.8.62c.21.8.46 1.6.93 2.31q.05.06.07.13c.21.8.8 1.37 1.3 1.98.15.19.35.33.5.51q.46.6.91 1.26.19.22.14.52c0 .06.06.18.13.22.33.22.63.5 1.06.55.06-.35.16-.7.15-1.05 0-.27-.15-.53-.24-.8m-24.76-27.3c0 .1.15.24.26.3.15.1.4.09.5.21.33.38.76.54 1.23.6q.03.18-.15.23c-.14.04-.28.15-.2.3.3.47.6.97 1.12 1.23a1 1 0 0 1 .48.49c.14.24.17.52.44.7.26.17.48.4.73.6.01.02.08 0 .12-.04.03-.02.08-.06.07-.09-.04-.13-.14-.26-.12-.38.1-.65.1-.65-.04-.9a14 14 0 0 0-1.93-2.59c-.06-.05-.19-.06-.26-.04-.25.08-.36-.05-.39-.25-.03-.18 0-.37 0-.55-.42-.19-.71-.48-1.02-.77-.28-.27-.51-.25-.89-.01a.4.4 0 0 0-.13.19c.25.22.17.49.18.77m-64.71 51.02a18 18 0 0 0-2.37-.86c-.1-.03-.25.06-.39.1l.12.57c.07.25.21.43.48.44.21 0 .33.14.46.27.17.18.32.1.47-.06.23-.24.41-.02.6.1V243c.28.25.65.23 1 .29.17-.28-.09-.5-.1-.76zm-.39.55-.25-.02q-.02-.23.22-.22c.05 0 .09.1.14.15q-.05.06-.1.09m-57.28-17.02c.51 0 1.04.06 1.42-.42l.94.18q.08.01.13-.01l.18-.2q.02-.05-.03-.11c-.19-.3-.46-.24-.74-.16-.3-.13-.61-.23-.89-.4-.43-.27-.77-.27-1.1.16-.13.16-.35.05-.53.06-.07 0-.18.07-.2.13-.03.08 0 .2.04.27.17.29.41.5.78.5m50.92-15.41c.68.41 1.38.74 2.21.61q.16-.01.25-.09c.06-.05.11-.18.09-.23a1 1 0 0 0-.64-.49c-.4-.06-.8-.23-1.21-.1-.2.02-.39 0-.56.04-.07.01-.13.1-.2.17zm86.96-4.27c-.2-.16.05-.49-.18-.59-.34-.15-.37-.62-.76-.7q.07-.23-.12-.37c-.15-.12-.4-.16-.46-.3-.23-.55-.77-.82-1.07-1.29-.28-.45-.7-.76-1.14-1.04q-.31-.18-.65-.24c-.12-.02-.28.07-.38.15-.13.1-.11.26-.05.39q.14.31.34.61.25.34.52.67.35.46 1.08.35c.34-.05.59.1.62.4l.05.72.97.21q.06 0 .13-.04l-.38.43c.43.32.87.6.8 1.19.2.07.4.1.54.2.3.2.5.07.72-.1q0-.14-.06-.23zm0 0"/><path fill="#4b2e59" d="m196.23 206.95.02.01.01-.04zm-93.29 31.69a.5.5 0 0 0-.58-.18q-.08 0-.11.06c-.01.04 0 .11.04.12.19.1.38.23.58.25.15.02.15-.15.05-.26.17.15.38.23.54.42.26.3.72.28 1.1.02q.03-.04.04-.18c-.45-.21-.91-.43-1.41-.51-.15-.03-.23.11-.25.26m26.9-16.31.07.01-.02-.03h-.02zm-1.02-.48c-.05-.02-.15.05-.22.1-.02.01-.02.1 0 .12.11.13.22.32.37.37.29.09.6.1.87-.11-.2-.03-.4-.02-.58-.17a2 2 0 0 0-.44-.3M67.85 232.6c-.05 0-.12.1-.16.17-.02.03.01.11.04.12l1.02.42q.04 0 .12-.05l.06-.1q-.02-.07-.06-.12c-.33-.18-.64-.4-1.02-.44m31.19.79c.18.25.46.28.72.05.05-.05.1-.19.07-.23q-.18-.2-.38-.39c-.18-.22-.18-.23-.5-.07q-.14.34.1.64m-60.98-7.99q.16-.11.04-.2c-.65-.2-.65-.2-.94.09q.08.09.2.16c.36.22.36.22.7-.05m68.74-14.98-.08-.1c-.2-.12-.26-.08-.43.3l.5-.09s.02-.07.01-.1m-7.92 22.32h.06v-.02zm-.85-.09c-.02.03-.03.1-.01.12.04.06.12.18.16.17l.7-.2-.75-.16q-.06 0-.1.07m16.93-41.36.11-.1q-.04-.07-.1-.1c-.24-.06-.53.04-.4.1.11.07.26.07.4.1m73.26 29.85-.03.05h.04l.01-.03zm-.1-.63-.12.02q-.2.16-.05.35l.26.26q.1-.17.12-.33a.3.3 0 0 0-.2-.3m2.16-19.21q.08-.08.15-.2c-.09-.01-.18-.07-.24-.04-.06.02-.12.13-.11.2.01.1.11.12.2.04m-86.85 11.64-.05-.03-.03.04zm.49.07c-.06-.03-.12-.09-.18-.09l-.3.02q.12.09.26.14c.07.02.15-.04.22-.07m12.45 29.72c-.1.03-.13.13-.05.17.05.03.15-.01.22-.02l.05-.12c-.07-.01-.16-.05-.22-.03m8.18 1.8v-.22l-.19.03-.02.18zm0 0"/><path fill="#4b2e59" d="M124.4 244.35v-.04l-.04.04zm62.7-46.18.04-.2q-.01-.19-.17-.09c-.02.02-.04.1-.02.12zm.36.07c-.01-.03-.08-.04-.12-.04l-.2.01q.09.08.18.13.18.06.14-.1m0 0"/><path fill="#4b2e59" d="m187.15 198.21-.03-.02-.02-.02-.02.06zm.78 1.02q.16.02.14-.1c0-.03-.07-.04-.1-.06l-.1.07c0 .02.04.08.06.09m-38.79 2.42-.07-.03h-.03l-.01.02zm.26.01-.26-.01.17.06q.04-.01.08-.05m-24.77 5.66-.02-.1-.05.08Zm-19.51 5.81q.07 0 .13-.02l-.03-.09q-.07 0-.13.03zm7.19 2.13-.1.06q.02.06.06.09.16.03.14-.1c0-.03-.07-.04-.1-.05m22.15 3.36q-.18.05-.05.17c.03.02.1.01.12 0l.12-.16zm54.45 2.5h-.06v.06h.04zm.19-.2c-.04-.02-.11 0-.13.01l-.06.2.2-.04q.16-.1-.01-.17m-62.71.24h-.49c.2.16.25.16.49 0m62.95.52-.37-.18q.16.13.37.18m-71.6 13.24.14-.11q-.1 0-.17.03zm0 0"/></g></svg>