<svg xmlns="http://www.w3.org/2000/svg" viewBox="174 241 247 218"><defs><clipPath id="b"><path d="M1 1h218v194.83H1Zm0 0"/></clipPath><clipPath id="c"><path d="M.28 2h224.69v195H.28Zm0 0"/></clipPath><clipPath id="a"><path d="M0 0h226v198H0z"/></clipPath></defs><g clip-path="url(#a)" transform="translate(185 251)"><g clip-path="url(#b)"><path fill="#f2c5cb" d="M217.64 49.34c-12.2-62.78-88.71-63.83-107.58-5.14C91.2-14.49 14.7-13.44 2.48 49.34c-11.07 56.97 107.58 146.84 107.58 146.84S228.71 106.3 217.64 49.34m0 0"/></g><g clip-path="url(#c)"><path fill="#c46d84" d="M112.83 196.54a3.8 3.8 0 0 1-2.66-1.1L32.3 117.56l-.34-.38-13.82-13.83a58.9 58.9 0 0 1 0-83.18 58.9 58.9 0 0 1 83.18 0l11.54 11.54 11.53-11.54a58.9 58.9 0 0 1 83.19 0 58.4 58.4 0 0 1 17.23 41.59 58.4 58.4 0 0 1-17.23 41.6l-13.83 13.82q-.15.2-.33.38l-77.88 77.88a3.8 3.8 0 0 1-2.68 1.1zm-74.88-83.91 74.9 74.9 74.92-74.9q.14-.21.33-.39l14.19-14.19a51 51 0 0 0 15.03-36.3 51 51 0 0 0-15.03-36.29 51.4 51.4 0 0 0-72.6 0L115.5 39.65a3.75 3.75 0 0 1-5.29 0L96.02 25.46a51.4 51.4 0 0 0-72.59 0 51.4 51.4 0 0 0 0 72.6l14.19 14.18q.18.18.33.39m0 0"/></g></g></svg>