<svg xmlns="http://www.w3.org/2000/svg" viewBox="153 299 306 194"><defs><clipPath id="b"><path d="M115.94 27.29H280V147.4H115.94Zm0 0"/></clipPath><clipPath id="c"><path d="M131.69 27.29h132.4c8.7 0 15.75 7.05 15.75 15.75v88.61c0 8.7-7.05 15.75-15.75 15.75h-132.4c-8.7 0-15.75-7.05-15.75-15.75V43.04c0-8.7 7.05-15.75 15.75-15.75m0 0"/></clipPath><clipPath id="e"><path d="M.94.29h163.98V120.4H.94Zm0 0"/></clipPath><clipPath id="f"><path d="M16.69.29h132.4c8.7 0 15.75 7.05 15.75 15.75v88.61c0 8.7-7.05 15.75-15.75 15.75H16.69c-8.7 0-15.75-7.05-15.75-15.75V16.04C.94 7.34 7.99.29 16.69.29m0 0"/></clipPath><clipPath id="d"><path d="M0 0h165v121H0z"/></clipPath><clipPath id="g"><path d="M113.95 27.29h163.33v140.47H113.95Zm0 0"/></clipPath><clipPath id="i"><path d="M1.52.29h162.76v140.47H1.52Zm0 0"/></clipPath><clipPath id="h"><path d="M0 0h165v141H0z"/></clipPath><clipPath id="j"><path d="M.16 3.5h163.97v114.7H.16Zm0 0"/></clipPath><clipPath id="k"><path d="M15.91 3.5h132.4c8.7 0 15.75 7.06 15.75 15.76v83.19c0 8.7-7.05 15.75-15.75 15.75H15.91c-8.7 0-15.75-7.05-15.75-15.75v-83.2c0-8.69 7.05-15.74 15.75-15.74m0 0"/></clipPath><clipPath id="m"><path d="M.16.5h163.97v114.7H.16Zm0 0"/></clipPath><clipPath id="n"><path d="M15.91.5h132.4c8.7 0 15.75 7.06 15.75 15.76v83.19c0 8.7-7.05 15.75-15.75 15.75H15.91c-8.7 0-15.75-7.05-15.75-15.75v-83.2C.16 7.57 7.21.52 15.91.52m0 0"/></clipPath><clipPath id="l"><path d="M0 0h165v116H0z"/></clipPath><clipPath id="o"><path d="M.16.38h163.32V141H.16Zm0 0"/></clipPath><clipPath id="a"><path d="M0 0h281v168H0z"/></clipPath></defs><g clip-path="url(#a)" transform="translate(166 312)"><g clip-path="url(#b)"><g clip-path="url(#c)"><g clip-path="url(#d)" transform="translate(115 27)"><g clip-path="url(#e)"><g clip-path="url(#f)"><path fill="#eadcf2" d="M.94.29h163.75V120.4H.94Zm0 0"/></g></g></g></g></g><g clip-path="url(#g)"><g clip-path="url(#h)" transform="translate(113 27)"><g clip-path="url(#i)"><path fill="#4b2e59" d="M129.67 140.6a5.84 5.84 0 0 0 5.85-5.85v-17.53c10.1 0 29.23-6.11 29.23-29.24V29.52c0-10.11-6.1-29.23-29.23-29.23H30.28c-10.1 0-29.23 6.1-29.23 29.23v58.46c0 10.11 4.88 29.24 23.38 29.24H98.4l27.63 22.1a6 6 0 0 0 3.65 1.29m0-35.07a5.85 5.85 0 0 0-5.85 5.84v11.22l-19.73-15.8a6 6 0 0 0-3.65-1.27h-76c-11.46 0-11.7-16.85-11.7-17.56V29.52c0-16.5 14.64-17.5 17.58-17.54h105.2c16.5 0 17.5 14.63 17.54 17.57v58.43c0 16.51-14.63 17.51-17.57 17.55ZM71.21 58.75a11.69 11.69 0 1 1 23.38 0 11.69 11.69 0 0 1-23.38 0m35.08 0a11.7 11.7 0 1 1 23.38 0 11.7 11.7 0 0 1-23.38 0m-70.17 0a11.7 11.7 0 1 1 23.4 0 11.7 11.7 0 0 1-23.4 0m0 0"/></g></g></g><g clip-path="url(#j)"><g clip-path="url(#k)"><g clip-path="url(#l)" transform="translate(0 3)"><g clip-path="url(#m)"><g clip-path="url(#n)"><path fill="#fff" d="M.16.5h163.97v114.7H.16Zm0 0"/></g></g></g></g></g><g clip-path="url(#o)"><path fill="#4b2e59" d="M35.34 140.7a5.84 5.84 0 0 1-5.85-5.84V117.3C19.38 117.3.26 111.2.26 88.07V29.61C.26 19.5 6.36.38 29.49.38h105.24c10.1 0 29.23 6.1 29.23 29.23v58.46c0 10.11-4.89 29.23-23.39 29.23H66.62L39 139.41a5.8 5.8 0 0 1-3.65 1.28m0-35.09a5.85 5.85 0 0 1 5.84 5.85v11.22l19.73-15.79a6 6 0 0 1 3.66-1.28h76c11.46 0 11.7-16.84 11.7-17.56V29.61c0-16.5-14.64-17.5-17.57-17.54H29.49c-16.5 0-17.5 14.63-17.54 17.57v58.43c0 16.5 14.63 17.5 17.57 17.54ZM93.8 58.84a11.69 11.69 0 1 0-23.37-.01 11.69 11.69 0 0 0 23.37.01m-35.08 0a11.69 11.69 0 1 0-23.38 0 11.69 11.69 0 0 0 23.38 0m70.16 0a11.69 11.69 0 1 0-23.38 0 11.69 11.69 0 0 0 23.38 0m0 0"/></g></g></svg>